<?xml version="1.0" encoding="UTF-8" standalone="no"?>
<!-- Created with Inkscape (http://www.inkscape.org/) -->

<svg
   width="1000"
   height="1000"
   viewBox="0 0 264.58333 264.58333"
   version="1.1"
   id="svg1"
   inkscape:version="1.4 (86a8ad7, 2024-10-11)"
   sodipodi:docname="map.svg"
   inkscape:export-filename="..\map.png"
   inkscape:export-xdpi="384"
   inkscape:export-ydpi="384"
   xml:space="preserve"
   xmlns:inkscape="http://www.inkscape.org/namespaces/inkscape"
   xmlns:sodipodi="http://sodipodi.sourceforge.net/DTD/sodipodi-0.dtd"
   xmlns:xlink="http://www.w3.org/1999/xlink"
   xmlns="http://www.w3.org/2000/svg"
   xmlns:svg="http://www.w3.org/2000/svg"><sodipodi:namedview
     id="namedview1"
     pagecolor="#ffffff"
     bordercolor="#999999"
     borderopacity="1"
     inkscape:showpageshadow="2"
     inkscape:pageopacity="0"
     inkscape:pagecheckerboard="0"
     inkscape:deskcolor="#d1d1d1"
     inkscape:document-units="mm"
     inkscape:zoom="1.5282058"
     inkscape:cx="539.52157"
     inkscape:cy="623.93428"
     inkscape:window-width="2560"
     inkscape:window-height="1494"
     inkscape:window-x="-11"
     inkscape:window-y="-11"
     inkscape:window-maximized="1"
     inkscape:current-layer="layer5"
     showguides="true" /><defs
     id="defs1" /><g
     inkscape:groupmode="layer"
     id="layer2"
     inkscape:label="Layer 2"
     sodipodi:insensitive="true"
     style="display:none;opacity:1"><image
       width="328.33289"
       height="269.33707"
       preserveAspectRatio="none"
       style="stroke-width:1.37235;image-rendering:optimizeSpeed"
       xlink:href="src/europe.png"
       id="image1"
       x="-13.504398"
       y="-2.6375635" /></g><g
     inkscape:groupmode="layer"
     id="layer3"
     inkscape:label="Map"
     style="opacity:1"
     sodipodi:insensitive="true"><path
       style="opacity:1;fill:#aaffaa;fill-opacity:1;stroke:none;stroke-width:0.499999;stroke-linecap:round;stroke-linejoin:round;stroke-miterlimit:4;paint-order:stroke markers fill"
       d="m 130.38128,116.42497 c 1.00645,-0.0538 0.39829,2.09403 1.10181,2.81575 0.29362,0.30121 0.93319,0.13741 1.16303,0.4897 0.34566,0.52982 -0.0615,1.26572 -0.0306,1.89756 0.0658,1.34358 -0.13591,2.80293 0.45909,4.00938 0.18828,0.38178 0.74094,0.50054 0.91818,0.88757 0.22549,0.4924 -0.25184,1.20354 0.0918,1.62212 0.20725,0.25245 0.73514,-0.002 0.94878,0.24484 0.24834,0.28719 0.028,0.76467 0.12243,1.13242 0.0659,0.25693 0.41216,0.49144 0.30606,0.73455 -0.0826,0.18933 -0.54252,0.0114 -0.58152,0.21424 -0.0777,0.40436 0.75965,0.44634 0.91818,0.82636 0.24773,0.59385 -0.35666,1.34176 -0.0918,1.92817 0.24201,0.5358 1.09544,0.58585 1.37727,1.10182 0.23601,0.43209 -0.0158,1.00659 0.15303,1.46908 0.11837,0.32428 0.34898,0.60182 0.58151,0.85697 0.30267,0.33212 0.81075,0.47085 1.0406,0.85696 0.19139,0.3215 -0.0243,0.81354 0.21424,1.10182 0.24514,0.29632 0.94,0.067 1.07121,0.42848 0.10278,0.28318 -0.18683,0.61585 -0.42848,0.79575 -0.28407,0.21148 -0.91514,-0.11693 -1.0406,0.21424 -0.10843,0.28621 0.40886,0.46345 0.5509,0.73455 0.0898,0.17146 0.31751,0.41109 0.18364,0.5509 -0.25682,0.26823 -0.78261,-0.53976 -1.07121,-0.30606 -0.23047,0.18663 -0.0227,0.60314 0.0612,0.88758 0.12532,0.42484 0.42309,0.77838 0.64273,1.16302 0.45811,0.80224 1.51645,1.46984 1.40787,2.38727 -0.05,0.42273 -0.77134,0.50867 -0.88757,0.91817 -0.0912,0.32149 -0.0167,0.7378 0.21424,0.97939 0.21886,0.22899 0.60624,0.18982 0.91818,0.24485 0.45389,0.0801 0.94234,0.27494 1.37727,0.12242 0.30641,-0.10745 0.39111,-0.5863 0.70393,-0.67333 0.58421,-0.16253 1.18433,0.53443 1.77515,0.39788 0.44553,-0.10297 0.96576,-0.41202 1.0712,-0.85697 0.0958,-0.40421 -0.45108,-0.72281 -0.5203,-1.13241 -0.0888,-0.5255 -0.0544,-1.10058 0.15303,-1.59151 0.17183,-0.40672 0.4415,-0.86058 0.85697,-1.01 0.27305,-0.0982 0.62183,0.32307 0.85697,0.15303 0.23382,-0.16909 -0.0949,-0.6671 0.12242,-0.85696 1.05255,-0.91963 2.88283,-0.51743 4.19301,-0.0306 0.10166,0.0378 0.13751,0.19876 0.24485,0.21424 0.28915,0.0417 0.6194,-0.13436 0.79575,-0.36727 0.27438,-0.36237 0.0987,-0.90706 0.21425,-1.34666 0.23795,-0.90539 0.64771,-1.7567 0.97939,-2.63211 0.2712,-0.71577 0.6802,-1.39108 0.82636,-2.14242 0.12079,-0.62097 -0.13907,-1.28814 0.0306,-1.89757 0.17411,-0.62538 1.13754,-1.05371 0.97939,-1.68332 -0.0379,-0.15104 -0.32192,-0.10891 -0.39788,-0.24485 -0.21399,-0.38295 -0.12995,-0.89706 0,-1.31606 0.18692,-0.60272 1.2227,-0.94831 1.07121,-1.5609 -0.0526,-0.21264 -0.46497,-0.12059 -0.58151,-0.30606 -0.15207,-0.24202 -0.0852,-0.57639 -0.0306,-0.85696 0.10035,-0.5155 0.47211,-0.94179 0.64273,-1.43848 0.23553,-0.68566 0.63593,-1.3961 0.5203,-2.11181 -0.0519,-0.32134 -0.57794,-0.506 -0.5203,-0.82636 0.23197,-1.28929 1.82666,-2.19059 3.1218,-2.38726 0.32229,-0.0489 0.62524,0.47968 0.91818,0.33666 0.26963,-0.13164 0.07,-0.63833 0.27546,-0.85697 0.34513,-0.36721 1.07626,-0.17144 1.40787,-0.5509 0.25563,-0.29252 0.16267,-0.76067 0.27545,-1.13242 0.29327,-0.96669 0.45509,-2.02313 1.0406,-2.84635 0.45806,-0.64403 1.61635,-0.74063 1.83636,-1.4997 0.27841,-0.96057 -0.45965,-1.97402 -0.94879,-2.84635 -0.45679,-0.81464 -1.13927,-1.48812 -1.80575,-2.14241 -0.79704,-0.78246 -1.58878,-1.64074 -2.6015,-2.11181 -0.6404,-0.29789 -1.59932,0.1185 -2.0812,-0.39788 -0.75715,-0.81136 -0.35082,-2.19667 -0.39788,-3.30544 -0.0619,-1.45846 -0.0277,-2.9281 0.15303,-4.376648 0.20287,-1.626234 0.47718,-3.266189 1.0406,-4.805132 0.31381,-0.857139 0.84955,-1.6159 1.28545,-2.417868 0.70225,-1.291985 1.53989,-2.514956 2.14242,-3.856347 0.34109,-0.759357 0.23549,-1.770278 0.82636,-2.356657 0.58166,-0.577237 1.64858,-0.33472 2.32605,-0.795756 1.11883,-0.761389 1.55965,-2.265773 2.63211,-3.091198 0.84255,-0.648474 2.08981,-0.662548 2.87695,-1.377268 1.06735,-0.96915 1.616,-2.400908 2.23424,-3.703317 0.5715,-1.203958 1.0722,-2.460382 1.34666,-3.764531 0.29489,-1.401222 0.0191,-2.881969 0.30606,-4.284829 0.30715,-1.501409 0.59577,-3.108507 1.49969,-4.346043 0.56324,-0.77111 1.83931,-0.875011 2.29544,-1.713934 0.3663,-0.673706 -0.49883,-1.891545 0.15303,-2.295446 0.78917,-0.488982 1.64598,0.991137 2.5709,1.071208 1.29206,0.111854 2.50868,-1.021139 3.79514,-0.856964 1.10437,0.140936 2.06537,0.879638 2.96877,1.530297 0.90154,0.649321 1.97038,1.296194 2.38727,2.32605 0.39445,0.974439 -0.11188,2.101353 -0.0918,3.15241 0.0174,0.909872 0.9568,2.24394 0.18364,2.72393 -0.55153,0.342399 -1.03452,-1.001072 -1.68333,-0.979392 -0.49207,0.01644 -0.88836,0.46638 -1.22424,0.826362 -1.12572,1.206485 -1.57783,2.90259 -2.47908,4.28483 -0.89718,1.375991 -1.62,2.95874 -2.90756,3.978772 -0.67727,0.536545 -1.75724,0.418699 -2.38727,1.009997 -0.94813,0.889845 -0.91137,2.490768 -1.74453,3.489076 -0.81711,0.979074 -2.28944,1.279781 -3.0606,2.295443 -1.01963,1.342911 -1.82105,3.027247 -1.83635,4.713314 -0.012,1.326555 1.23828,2.414615 1.37726,3.733924 0.0972,0.922602 -0.53806,1.837482 -0.39787,2.754535 0.16411,1.073547 1.30415,1.857113 1.40787,2.938168 0.11178,1.165084 -0.56571,2.271954 -0.88757,3.397264 -0.26443,0.92451 -0.99185,1.80245 -0.85697,2.75453 0.16114,1.13744 0.99526,2.16592 1.89757,2.87696 0.40049,0.31559 1.11031,0.13005 1.43848,0.5203 0.45339,0.53916 -0.006,1.48357 0.36727,2.0812 0.46778,0.74959 1.37121,1.12969 2.14241,1.56091 0.86649,0.4845 1.76197,1.11402 2.75454,1.13241 1.85885,0.0344 3.47785,-1.31677 5.23361,-1.92817 2.0078,-0.69917 4.01219,-1.41785 6.05998,-1.98938 2.13813,-0.59674 4.77729,-0.0856 6.48846,-1.4997 0.52461,-0.43352 0.43515,-1.31009 0.82636,-1.86696 1.46007,-2.07834 3.85274,-3.33863 5.50907,-5.26422 2.02475,-2.353914 3.27782,-5.314018 5.35603,-7.620877 0.63402,-0.703775 1.62226,-1.075311 2.14242,-1.866961 0.81145,-1.234972 1.62863,-2.773069 1.34666,-4.22362 -0.11889,-0.611624 -0.91211,-0.882632 -1.19363,-1.438479 -0.20906,-0.412779 -0.0789,-0.962429 -0.33667,-1.34666 -0.82537,-1.23016 -2.53124,-1.586756 -3.58089,-2.632109 -0.52192,-0.519782 -1.43554,-1.048305 -1.31606,-1.775146 0.0725,-0.441225 0.82339,-0.415265 1.10182,-0.765148 0.64998,-0.816789 1.13236,-1.864168 1.16302,-2.907565 0.0123,-0.419218 -0.14331,-0.860331 -0.39788,-1.19363 -0.37957,-0.496948 -1.27947,-0.482187 -1.5609,-1.040601 -0.56083,-1.11281 1.01304,-2.803887 0.18364,-3.733924 -0.31301,-0.35099 -0.99883,0.140257 -1.40787,-0.09182 -0.31259,-0.177353 -0.51735,-0.540897 -0.61212,-0.887571 -0.15372,-0.562311 -0.23073,-1.280742 0.12242,-1.744538 0.22284,-0.292655 0.83258,-0.0639 1.0406,-0.367271 0.19624,-0.2862 0.1531,-0.746197 -0.0306,-1.040604 -0.23191,-0.371674 -1.08708,-0.18066 -1.16303,-0.612118 -0.0526,-0.298734 0.48956,-0.395866 0.61212,-0.673331 0.21944,-0.496798 -0.0354,-1.112751 0.15303,-1.622112 0.0737,-0.1991 0.37272,-0.308083 0.36727,-0.520303 -0.009,-0.363162 -0.80514,-0.51844 -0.67333,-0.856965 0.2063,-0.529825 1.34888,0.184344 1.68333,-0.275455 0.75876,-1.043125 -0.22224,-2.586891 -0.58152,-3.82574 -0.89067,-3.071168 -4.09225,-5.594905 -3.85634,-8.783904 0.17249,-2.33164 2.94545,-3.736503 3.73392,-5.937552 0.19075,-0.532499 0.37571,-1.141226 0.21424,-1.683324 -0.20659,-0.693581 -1.00988,-1.048295 -1.40787,-1.652722 -0.54449,-0.826901 -0.6221,-1.956561 -1.31606,-2.662717 -0.74837,-0.76153 -2.17813,-0.636335 -2.84635,-1.469083 -0.82546,-1.028698 -1.16699,-2.516179 -1.01,-3.825743 0.14779,-1.232844 2.16747,-2.096772 1.77515,-3.274835 -0.1774,-0.532718 -1.46261,-0.146551 -1.5303,-0.703937 -0.10065,-0.828792 1.12393,-1.567618 1.95878,-1.560901 0.22467,0.0018 0.29722,0.455196 0.5203,0.428482 0.40519,-0.04852 0.58664,-0.599057 0.73455,-0.97939 0.26381,-0.678362 -0.20422,-1.577488 0.21424,-2.173021 0.66901,-0.952106 2.37108,-0.637361 3.15241,-1.499691 0.36402,-0.401761 0.53625,-0.988348 0.55091,-1.530296 0.0115,-0.425892 -0.7254,-0.993444 -0.36728,-1.224238 0.53485,-0.344688 0.84097,1.036078 1.43848,1.254843 0.62278,0.228017 1.57128,0.48421 1.98939,-0.0306 0.60925,-0.750153 0.13853,-2.169167 -0.55091,-2.846352 -0.59111,-0.580602 -1.6621,-0.167466 -2.44847,-0.428483 -2.12613,-0.705716 -6.58708,-0.868427 -5.99877,-3.029988 0.50471,-1.85442 3.89633,0.860182 5.75392,0.367271 1.4878,-0.394786 3.32275,-1.096458 3.85635,-2.540292 0.24289,-0.657228 -0.11823,-1.494331 -0.58151,-2.019992 -0.63152,-0.7165567 -1.98931,-0.425974 -2.63212,-1.1324193 -0.44729,-0.4915731 -0.0694,-1.5139857 -0.61211,-1.8975681 -0.88348,-0.6243835 -2.34986,0.7004891 -3.24423,0.091818 -0.52026,-0.354063 -0.19494,-1.332981 -0.64273,-1.7751441 -0.35355,-0.3491092 -0.93651,-0.646849 -1.40787,-0.4896951 -0.60665,0.20226 -0.81805,1.0042775 -1.07121,1.5915087 -0.29395,0.6818402 -0.3201,1.450144 -0.48969,2.1730213 -0.0983,0.419162 0.0348,0.9918366 -0.30606,1.2548436 -0.46855,0.361517 -1.53706,0.511188 -1.77515,-0.03061 -0.29075,-0.661621 1.1903,-0.943378 1.43848,-1.6221148 0.14368,-0.3929604 0.14544,-0.8752751 -0.0306,-1.2548433 -0.20675,-0.4457817 -1.20898,-0.4998238 -1.10182,-0.9793899 0.1415,-0.6332307 1.44417,-0.058715 1.86696,-0.5509067 0.4428,-0.5154896 0.54556,-1.3964143 0.27546,-2.0199916 -0.18902,-0.4363916 -0.7136,-0.6708475 -1.16303,-0.8263604 -0.9942,-0.3440198 -2.19908,-0.5979421 -3.15241,-0.1530297 -0.67303,0.3140973 -1.51828,1.0525289 -1.34666,1.7751443 0.12862,0.541575 1.36841,0.1936062 1.49969,0.7345424 0.22185,0.9140968 -1.34315,1.3878763 -1.68333,2.2648391 -0.29297,0.7552457 0.18678,1.7323559 -0.24484,2.4178686 -0.3757,0.596693 -1.20659,1.473572 -1.80575,1.101814 -1.87971,-1.166299 2.44645,-5.4211083 0.58151,-6.6108819 -0.58567,-0.3736417 -1.33343,0.5311549 -1.80575,1.0406018 -1.50774,1.6262621 -1.99933,3.9621559 -2.87696,5.9987631 -0.48437,1.124016 -0.16065,3.024026 -1.31605,3.427865 -0.37989,0.132782 -0.86492,-0.250062 -1.04061,-0.612119 -0.19778,-0.40759 -0.084,-0.981119 0.18364,-1.346661 0.1267,-0.173059 0.47096,-0.09166 0.58151,-0.275454 0.46321,-0.77013 -0.37832,-1.831825 -0.12242,-2.693322 0.5079,-1.7098428 3.50607,-2.604245 3.1218,-4.3460424 -0.0984,-0.4460887 -0.77539,-0.4895987 -1.19363,-0.6733307 -0.39285,-0.1725796 -0.90667,-0.6864483 -1.22423,-0.397877 -0.20883,0.1897674 0.40604,0.6527086 0.18363,0.8263601 -0.61135,0.4773224 -1.33947,-0.8138559 -2.0812,-1.0406017 -0.45259,-0.1383564 -1.08635,-0.5309172 -1.40788,-0.1836357 -0.87813,0.948469 1.72328,2.8949147 0.79576,3.795136 -0.84342,0.818594 -2.36717,-1.3327166 -3.42786,-0.8263602 -0.4077,0.194631 -0.4879,0.7822674 -0.58152,1.2242371 -0.16285,0.7687583 0.65916,1.8467995 0.0612,2.3566565 -0.71866,0.612776 -1.97327,-1.0028268 -2.78514,-0.5203 -0.34113,0.202745 -0.44068,0.742439 -0.36727,1.132419 0.10729,0.569981 0.86922,0.815356 1.10182,1.346661 0.49993,1.141925 1.50467,2.938507 0.5203,3.703318 -0.3396,0.263856 -0.92195,-0.156315 -1.19363,-0.489695 -0.55743,-0.684032 0.0747,-1.923256 -0.4897,-2.601504 -0.92349,-1.109672 -2.60195,-1.688472 -4.03998,-1.560903 -0.99863,0.08859 -2.30143,0.595246 -2.5709,1.560903 -0.14227,0.509846 0.35146,1.042585 0.73454,1.407873 0.54506,0.519753 1.57578,0.364159 2.0506,0.948784 0.77229,0.950892 1.9177,3.024469 0.82636,3.580894 -1.30132,0.663485 -1.49936,-2.819773 -2.87696,-3.305441 -0.27366,-0.09648 -0.64601,-0.04622 -0.85696,0.15303 -0.32021,0.302446 0.01,0.978239 -0.30606,1.285449 -0.46313,0.450763 -1.28868,0.614496 -1.89757,0.397877 -0.2597,-0.09239 -0.31989,-0.453481 -0.5203,-0.642724 -0.29232,-0.276022 -0.57802,-0.727113 -0.97939,-0.703937 -0.92285,0.05329 -1.21365,1.474521 -2.0506,1.866962 -0.73676,0.345462 -1.77719,-0.165021 -2.41787,0.336665 -0.56232,0.440329 -0.29692,1.478242 -0.79575,1.989386 -0.54265,0.556052 -1.49904,0.482591 -2.14242,0.918178 -0.58541,0.396343 -1.23248,0.845173 -1.49969,1.499691 -0.37791,0.925677 0.50098,2.117095 0.0306,2.999382 -0.56842,1.066174 -3.07763,0.78209 -3.02999,1.989386 0.0234,0.593096 1.55626,0.263424 1.5609,0.856964 0.0138,1.772774 -2.99751,3.343157 -4.6215,2.632112 -0.78663,-0.344417 0.24404,-2.273318 -0.58151,-2.509686 -0.90158,-0.258135 -1.24164,1.423376 -1.98938,1.989386 -1.16537,0.882141 -2.56416,1.404405 -3.82575,2.142413 -0.98015,0.573372 -2.26603,0.838189 -2.90756,1.775145 -0.29282,0.427657 -0.58406,1.113893 -0.27545,1.530297 0.20796,0.280598 0.71107,0.238136 1.0406,0.122423 0.95973,-0.337002 1.2126,-1.760568 2.14241,-2.17302 0.8774,-0.389207 1.93918,0.08223 2.87696,-0.122423 1.10871,-0.241949 2.04836,-1.023027 3.15241,-1.285452 1.37406,-0.326605 2.95536,-0.958123 4.22362,-0.336663 0.31762,0.155637 0.68973,0.550827 0.58152,0.887571 -0.25097,0.781025 -1.47617,0.845464 -2.29545,0.887574 -0.697,0.03583 -1.33464,-0.682806 -2.01999,-0.550908 -0.66521,0.128022 -1.12333,0.765865 -1.62212,1.224238 -0.58515,0.537736 -0.84078,1.514425 -1.5915,1.775142 -0.50859,0.176628 -1.15982,-0.597177 -1.59151,-0.275452 -0.34599,0.257856 -0.35175,0.902422 -0.15303,1.285449 0.26698,0.514587 1.59527,0.250291 1.5303,0.82636 -0.1412,1.251915 -2.9935,-0.07007 -3.64211,1.009996 -0.43581,0.725713 0.68931,1.643954 0.5509,2.47908 -0.16993,1.025313 -1.08157,1.775045 -1.62211,2.662716 -0.71435,1.173098 -1.35356,2.395334 -2.14241,3.519684 -0.87941,1.253416 -2.13895,2.239347 -2.87696,3.580894 -0.63912,1.161787 -1.40683,2.444114 -1.28545,3.764529 0.0343,0.372993 0.59459,0.607381 0.5509,0.97939 -0.0859,0.731355 -1.12729,0.98684 -1.49969,1.622115 -0.434,0.740349 -0.52178,1.635203 -0.79575,2.448475 -0.44498,1.320894 -0.82745,2.667362 -1.37727,3.948166 -0.61556,1.433928 -1.14233,2.964537 -2.14241,4.162406 -0.46164,0.552933 -1.85766,0.610232 -1.71394,1.316056 0.12195,0.598895 1.65059,-0.139268 1.77515,0.459089 0.29031,1.394585 -2.34559,1.638842 -3.36665,2.63211 -1.04398,1.015562 -2.03104,2.120623 -2.78514,3.366653 -0.64159,1.060122 -0.78033,2.377944 -1.43848,3.427865 -0.54899,0.875782 -1.2273,1.701103 -2.0506,2.32605 -1.3629,1.034544 -3.16507,1.336124 -4.6215,2.234234 -1.22621,0.756147 -2.32708,1.702791 -3.42786,2.63211 -1.74311,1.471593 -3.45291,2.99372 -5.01937,4.652102 -1.46294,1.54879 -3.29661,2.942636 -4.07059,4.927555 -0.34888,0.894728 -0.0538,1.921755 -0.15303,2.876957 -0.19946,1.920246 -0.99781,3.795886 -0.88758,5.723306 0.055,0.96121 0.5101,1.85676 0.76515,2.78514 0.25505,0.92838 0.65285,1.82894 0.76515,2.78515 0.24289,2.06821 -0.38482,4.16817 -0.21424,6.2436 0.17815,2.16753 0.22049,4.50038 1.28545,6.39664 1.06764,1.90103 2.75409,3.69828 4.80513,4.43787 1.61462,0.58222 3.56465,0.40174 5.1418,-0.27546 1.90979,-0.82003 3.02653,-2.84946 4.52968,-4.28483 1.13755,-1.08626 2.00779,-2.5377 3.39726,-3.27483 0.47901,-0.25412 1.19716,0.0355 1.5915,-0.33667 0.93052,-0.87825 -0.26772,-3.63508 1.00999,-3.70333 z"
       id="path1"
       inkscape:label="Nordics"
       sodipodi:nodetypes="aaaaaaaaaaaaaaaaaaaaaaaaaaaaaaaaaaaaaaaaaaaaaaaaaaaaaaaaaaaaaaaaaaaaaaaaaaaaaaaaaaaaaaaaaaaaaaaaaaaaaaaaaaaaaaaaaaaaaaaaaaaaaaaaaaaaaaaaaaaaaaaaaaaaaaaaaaaaaaaaaaaaaaaaaaaaaaaaaaaaaaaaaaaaaaaaaaaaaaaaaaaaaaaaaaaaaaaaaaaaaaaaaaaaaaaaaaaaaaaaaaaaaaaaaaaaaaaaaaaaaaaaaaaaaaaaaa" /><path
       style="opacity:1;fill:#aaffaa;stroke:none;stroke-width:0.499999;stroke-linecap:round;stroke-linejoin:round;stroke-miterlimit:4;paint-order:markers fill stroke"
       d="m 200.71372,116.85346 c -0.81015,-1.05328 -2.63583,0.75946 -3.94817,0.5509 -0.91925,-0.14609 -1.60379,-1.01042 -2.50969,-1.22423 -1.02275,-0.24139 -2.10436,-0.10733 -3.15241,-0.0306 -1.44194,0.10557 -2.90784,0.23261 -4.28483,0.67333 -1.41223,0.452 -3.06683,0.82017 -3.97877,1.98939 -0.66829,0.85684 -0.76217,2.09793 -0.70393,3.18301 0.0548,1.02122 0.40859,2.05898 0.97938,2.90757 0.43602,0.64824 0.9963,1.46924 1.77515,1.53029 0.59835,0.0469 1.01954,-1.26398 1.53029,-0.94878 1.25527,0.77466 -0.28528,2.9365 -0.39787,4.40725 -0.13654,1.78365 0.79864,3.9736 -0.33667,5.35604 -0.58265,0.70948 -1.78616,0.97687 -2.66271,0.70394 -1.70629,-0.53129 -1.9225,-3.21062 -3.48908,-4.07059 -0.94856,-0.52071 -2.18707,-0.80127 -3.21362,-0.45909 -1.16343,0.38781 -2.00221,1.53155 -2.60151,2.60151 -0.91779,1.63858 -1.15878,3.60695 -1.31605,5.47846 -0.18839,2.24174 0.31384,4.48835 0.45909,6.7333 0.097,1.49937 1.30491,3.40467 0.27545,4.49908 -1.12539,1.1964 -3.73477,-1.12922 -4.92756,0 -0.54164,0.51277 0.14887,1.53946 -0.12242,2.23423 -0.38485,0.98558 -0.99577,2.18304 -2.01999,2.44847 -1.37911,0.35739 -3.06045,-0.4717 -3.97877,-1.5609 -0.58423,-0.69295 0.22532,-2.19477 -0.55091,-2.66271 -1.72822,-1.04183 -3.93758,0.94376 -5.81513,1.68332 -3.36209,1.32432 -6.06093,4.75033 -9.67147,4.89695 -1.61847,0.0657 -3.11432,-0.99599 -4.49907,-1.83636 -0.90343,-0.54827 -1.36372,-1.97612 -2.41787,-2.05059 -2.30955,-0.16315 -3.58024,3.40568 -5.87634,3.70332 -0.74237,0.0962 -1.88929,0.0311 -2.14242,-0.67334 -0.24687,-0.68706 1.46084,-1.15695 1.19363,-1.83635 -0.29252,-0.74375 -1.57897,-0.29758 -2.32605,-0.58151 -0.72087,-0.27397 -1.7807,-0.3488 -2.05059,-1.07121 -0.10741,-0.2875 0.38926,-0.5546 0.33666,-0.85697 -0.0744,-0.42738 -0.48206,-0.76116 -0.85697,-0.97939 -0.35102,-0.20432 -1.12873,0.1561 -1.19363,-0.24484 -0.0979,-0.60459 1.68988,-0.31367 1.59151,-0.91818 -0.0987,-0.60627 -1.5505,0.19143 -1.80575,-0.36727 -0.34548,-0.75621 0.40667,-2.0221 1.22424,-2.17303 1.22544,-0.22622 1.64116,2.54752 2.87696,2.38727 0.60922,-0.079 0.94152,-0.89921 1.0712,-1.49969 0.16683,-0.7725 0.0273,-1.70313 -0.45909,-2.32606 -0.47184,-0.60432 -1.71938,-0.30342 -2.0812,-0.97938 -0.55492,-1.03671 -0.21603,-2.57227 0.5203,-3.48908 0.55406,-0.68986 2.03049,-0.18612 2.47908,-0.94879 0.29259,-0.49744 0.15316,-1.29603 -0.24485,-1.71393 -0.40845,-0.42886 -1.36564,0.11852 -1.74453,-0.33666 -0.79629,-0.95664 -0.17128,-2.49722 -0.0306,-3.73393 0.10907,-0.95886 0.73938,-1.85296 0.67333,-2.81574 -0.0442,-0.64452 -0.0822,-1.63022 -0.70393,-1.80575 -1.12125,-0.31656 -1.90146,1.35252 -2.78514,2.11181 -0.75515,0.64885 -1.27646,1.5899 -2.14242,2.0812 -0.92768,0.52631 -2.38667,0.0256 -3.0912,0.82636 -0.45556,0.51779 -0.14701,1.37299 -0.27545,2.0506 -0.11935,0.62965 -0.39767,1.22905 -0.45909,1.86696 -0.11943,1.24041 0.10127,2.4905 0.18363,3.73392 0.0731,1.10322 -0.2011,2.30778 0.27546,3.30544 0.2737,0.57297 1.12201,0.73463 1.37726,1.31606 0.42658,0.97169 -0.18132,2.1499 0.0612,3.18302 0.23987,1.02184 1.20596,1.80621 1.34666,2.84635 0.14299,1.0571 -0.13708,2.16922 -0.55091,3.15241 -0.52173,1.23956 -1.01671,3.15977 -2.35666,3.27484 -0.74034,0.0636 -0.86086,-1.42559 -1.5915,-1.56091 -1.15914,-0.21468 -2.73829,0.34312 -3.24424,1.40788 -0.2911,0.61261 1.06081,1.51152 0.55091,1.95877 -0.87615,0.7685 -2.04847,-1.35151 -3.21362,-1.37726 -1.24271,-0.0275 -2.72702,0.33404 -3.48908,1.31605 -0.79915,1.0298 0.71088,3.25374 -0.42848,3.88696 -0.92933,0.51649 -1.90884,-1.81678 -2.87696,-1.37727 -1.41768,0.6436 -0.55057,3.11053 -1.25484,4.49907 -0.63425,1.25048 -1.60471,2.31935 -2.6015,3.30544 -1.51014,1.49392 -3.16693,2.9039 -5.049985,3.88696 -1.109766,0.57936 -2.799476,0.15435 -3.580894,1.13242 -0.990498,1.23977 0.447899,3.40124 -0.397878,4.74392 -0.731141,1.16069 -2.350802,1.41561 -3.550288,2.0812 -0.825966,0.45832 -1.94462,0.5591 -2.509686,1.31605 -0.441646,0.59162 0.177412,1.75117 -0.428482,2.17302 -1.263584,0.87977 -3.436456,0.31791 -4.560285,-0.73454 -0.366696,-0.34341 0.03834,-1.13477 -0.336666,-1.46908 -0.482713,-0.43033 -1.45065,-0.65032 -1.928172,-0.21424 -0.753487,0.6881 -0.05235,2.04653 0.06121,3.06059 0.118237,1.05583 1.259046,2.25642 0.642723,3.12181 -0.775921,1.08949 -2.682976,0.85189 -3.978769,0.5203 -0.636547,-0.16289 -0.965579,-0.96318 -1.591509,-1.16303 -0.748399,-0.23895 -1.574229,-0.0401 -2.356657,0.0306 -1.525063,0.13788 -3.458652,-0.32926 -4.52968,0.76515 -0.786112,0.80327 -0.903157,2.29092 -0.489693,3.33604 0.37395,0.94524 1.478214,1.44266 2.387261,1.89757 1.942915,0.97228 4.579878,0.3318 6.304823,1.65272 1.026765,0.78627 1.197485,2.29962 1.928174,3.36665 0.897531,1.31067 2.044093,2.43413 2.99938,3.70332 0.471448,0.62637 1.134057,1.1736 1.346663,1.92818 0.59593,2.11508 -0.06272,4.40855 -0.397877,6.58027 -0.434754,2.8171 0.197596,6.58187 -2.081205,8.29421 -1.354783,1.01801 -3.389793,-0.0696 -5.080584,-0.18364 -2.792382,-0.18837 -5.568208,-0.57272 -8.35542,-0.82636 -3.802745,-0.34605 -7.68868,-1.778 -11.416014,-0.94878 -1.561297,0.34734 -2.93098,1.36653 -4.162407,2.38726 -0.640659,0.53104 -1.559016,1.06783 -1.622115,1.89757 -0.07921,1.04164 1.325509,1.67064 1.652722,2.66272 0.548268,1.66229 0.250027,3.49236 0.428482,5.23361 0.144621,1.41112 0.673193,2.81337 0.520301,4.22362 -0.16554,1.52692 -0.999222,2.90492 -1.530297,4.34604 -0.608613,1.65153 -1.914541,3.16754 -1.897568,4.92756 0.0086,0.89227 0.314518,1.92004 1.009997,2.47908 0.516362,0.41506 1.528737,-0.16729 1.958779,0.33666 1.079519,1.26506 0.580496,3.40887 0.06121,4.98877 -0.16374,0.49817 -1.076231,0.74619 -0.948783,1.25485 0.142004,0.56676 1.015421,0.63704 1.591509,0.73454 1.556407,0.26341 3.13689,-0.54079 4.713314,-0.45909 1.226834,0.0636 2.61094,0.0218 3.611499,0.73454 1.437876,1.02431 1.175664,3.6584 2.693323,4.56029 0.500211,0.29726 1.214341,0.30092 1.744538,0.0612 0.865326,-0.39124 0.981831,-1.73139 1.80575,-2.20363 2.043064,-1.17102 4.637012,-0.84791 6.978152,-1.10181 1.706958,-0.18512 3.717893,0.65335 5.141799,-0.30606 1.180739,-0.79557 0.709049,-2.98672 1.836356,-3.85635 0.822229,-0.63428 2.258356,0.0779 3.060592,-0.58151 0.696644,-0.5726 0.523691,-1.75029 1.009996,-2.50969 0.809522,-1.26413 2.927177,-1.78271 3.091199,-3.27484 0.134971,-1.22784 -1.768723,-1.95451 -1.897568,-3.18301 -0.134386,-1.28133 0.616253,-2.53505 1.247299,-3.65828 1.108852,-1.9737 2.573551,-3.81231 4.349974,-5.21565 1.20754,-0.95393 2.741185,-1.40064 4.133558,-2.05595 1.285695,-0.6051 3.117818,-0.54207 3.895499,-1.73134 0.69487,-1.06264 0.0144,-2.53929 0.0216,-3.80893 0.007,-1.28407 -0.615687,-2.73743 0.0216,-3.85222 0.69198,-1.21047 2.21159,-1.94992 3.59252,-2.14252 1.55282,-0.21657 3.03117,0.80296 4.54475,1.21193 1.29245,0.34922 2.5513,1.2683 3.87386,1.06044 2.40946,-0.37869 4.06761,-2.69308 6.12459,-4.0037 1.51099,-0.96274 2.77635,-2.75964 4.56639,-2.83506 2.07909,-0.0876 4.14315,1.31276 5.56191,2.83506 1.33555,1.43301 1.22901,3.76633 2.29401,5.41041 1.80942,2.79325 4.22794,5.19735 6.79549,7.31488 1.94735,1.60603 4.17093,2.87276 6.42757,4.00371 1.13537,0.569 2.51306,0.65078 3.54923,1.38507 1.04763,0.7424 1.83557,1.82926 2.51044,2.92162 1.06893,1.7302 2.41504,3.59385 2.35894,5.62684 -0.0387,1.40293 -1.77253,2.38542 -1.83954,3.78729 -0.0187,0.39216 0.0945,0.87163 0.41119,1.10372 0.34373,0.25193 0.89571,0.25554 1.27686,0.0649 0.80882,-0.40456 1.13013,-1.43232 1.51491,-2.25074 0.35837,-0.76225 0.12541,-1.82152 0.71418,-2.42386 0.5135,-0.52534 1.67947,-0.068 2.09924,-0.67089 0.45802,-0.65781 0.31784,-1.72328 -0.10821,-2.40223 -0.49239,-0.78466 -2.01112,-0.50194 -2.44551,-1.32014 -0.40795,-0.76841 -0.13791,-1.82319 0.2597,-2.597 0.39948,-0.77744 1.09553,-1.71231 1.96939,-1.73133 1.94409,-0.0423 2.60637,3.81229 4.54475,3.65744 0.59062,-0.0472 1.13499,-0.73022 1.19029,-1.32014 0.10877,-1.16035 -0.96145,-2.19615 -1.8179,-2.98655 -2.39216,-2.20768 -7.74462,-1.28813 -8.72159,-4.39326 -0.2509,-0.79743 1.59194,-1.47428 1.1903,-2.20745 -0.75068,-1.37032 -3.24879,0.29278 -4.6746,-0.34627 -1.95996,-0.87845 -3.60731,-2.59183 -4.63132,-4.47982 -0.73927,-1.36302 -0.0585,-3.25587 -0.88731,-4.56639 -1.25472,-1.98403 -4.65261,-2.06133 -5.67011,-4.17684 -0.71659,-1.48988 -0.48955,-3.45096 0.19477,-4.95594 0.43936,-0.96625 1.41322,-1.627 2.31566,-2.18581 0.8887,-0.55031 1.91099,-1.24655 2.94326,-1.08209 0.34491,0.0549 0.793,0.30123 0.82239,0.64925 0.0752,0.89068 -1.76739,1.09765 -1.79626,1.99104 -0.0342,1.05736 1.10226,1.88278 1.96939,2.48879 0.58527,0.40903 1.43334,1.05646 2.03432,0.67089 0.92865,-0.5958 -0.70605,-3.03657 0.36791,-3.28953 1.2543,-0.29544 1.60136,2.05769 2.09924,3.24625 0.44833,1.07027 0.23568,2.36129 0.75746,3.39774 0.73359,1.4572 1.77911,2.90433 3.20296,3.70072 1.20584,0.67446 2.83188,0.10049 4.09028,0.67089 3.4122,1.54666 6.44808,4.13153 8.6783,7.14175 0.76243,1.02908 1.26159,2.28584 1.47164,3.54924 0.26082,1.56873 -0.75214,3.23564 -0.30299,4.76116 0.77488,2.63188 3.58883,4.20517 4.89034,6.62039 0.70126,1.30135 0.37624,3.2386 1.5303,4.16241 1.09262,0.87463 2.80411,0.2135 4.1624,0.55091 2.04883,0.50895 3.90504,1.63297 5.93755,2.20362 0.72044,0.20227 1.659,0.94165 2.20363,0.42849 0.67419,-0.63522 -0.0614,-1.88018 -0.36727,-2.75454 -0.4321,-1.23533 -1.04346,-2.49537 -2.01999,-3.36665 -0.73585,-0.65654 -2.08424,-0.44864 -2.69332,-1.22424 -1.21848,-1.55161 -2.50187,-4.42514 -1.10182,-5.81512 0.97403,-0.96702 2.77409,1.32618 4.03999,0.79575 0.99169,-0.41553 0.95419,-1.99894 1.77514,-2.69332 0.73236,-0.61945 1.68076,-1.04051 2.63211,-1.16303 1.90635,-0.2455 3.87857,0.28306 5.6927,0.91818 0.86232,0.30189 1.47539,1.2901 2.38727,1.34666 2.46574,0.15294 5.38648,-0.82965 6.85573,-2.81574 0.52405,-0.70839 0.43892,-1.7726 0.24484,-2.63212 -0.43932,-1.9456 -3.06254,-3.14721 -3.06059,-5.14179 0.003,-2.96796 3.54157,-4.85773 4.56913,-7.64214 0.53706,-1.4553 -0.25915,-3.43548 0.7791,-4.58803 0.6818,-0.75686 2.27976,-0.0494 2.94327,-0.82238 1.17379,-1.36739 -0.16171,-3.75783 0.64925,-5.36714 0.99204,-1.96865 2.80139,-3.62417 4.80445,-4.54475 1.51578,-0.69664 4.07093,-1.91971 4.97758,-0.5194 0.45324,0.70003 -1.58638,1.39879 -1.25522,2.16417 0.7588,1.75373 4.94036,-0.50085 5.58355,1.2985 0.3186,0.8913 -1.08076,1.56321 -1.73133,2.25073 -0.47111,0.49787 -1.65368,0.66304 -1.5582,1.34179 0.13939,0.99087 1.90577,0.6833 2.72685,1.25521 0.60274,0.41983 1.33483,0.85844 1.5582,1.5582 0.31592,0.9897 -1.25058,2.33508 -0.5194,3.07312 0.70949,0.71615 2.03555,-0.1417 2.98655,-0.47612 1.78612,-0.62809 3.12334,-2.261 4.9343,-2.81341 1.49449,-0.45587 3.65071,0.83397 4.6746,-0.34627 0.5591,-0.64448 0.49283,-2.02041 -0.17314,-2.55372 -1.03688,-0.83033 -2.61427,0.50468 -3.93878,0.60597 -0.76245,0.0583 -1.65614,0.42171 -2.29402,0 -1.32116,-0.87343 -2.44264,-2.89845 -1.86118,-4.37162 0.60237,-1.52614 2.98333,-1.36879 4.50147,-1.99103 3.39687,-1.39227 8.19522,-0.88867 10.30143,-3.8955 0.6457,-0.92181 -0.60255,-2.4544 0.0433,-3.3761 0.39828,-0.56838 1.2704,-0.58454 1.94775,-0.73582 1.44066,-0.32176 3.31873,0.64239 4.4149,-0.34626 0.65355,-0.58944 0.51205,-1.71764 0.47612,-2.597 -0.0476,-1.16447 -1.16286,-2.23866 -0.90895,-3.3761 0.21412,-0.95917 1.71861,-1.28568 1.90446,-2.25073 0.14668,-0.76162 -0.22932,-1.62004 -0.73581,-2.20745 -0.72894,-0.8454 -1.96998,-1.05379 -2.98655,-1.51492 -1.37365,-0.62311 -2.73056,-2.03506 -4.19848,-1.68805 -0.4874,0.11522 -0.496,1.16169 -0.99552,1.12537 -1.34103,-0.0975 -0.94184,-2.9221 -2.20745,-3.3761 -1.13825,-0.40831 -2.25659,1.16983 -3.46267,1.08208 -0.83025,-0.0604 -1.46778,-0.79933 -2.25073,-1.08208 -0.72736,-0.26268 -1.75272,0.029 -2.25073,-0.56269 -0.88505,-1.05144 0.60325,-3.07868 -0.30299,-4.11191 -1.07845,-1.22956 -3.65024,0.16322 -4.80445,-0.99552 -0.66495,-0.66756 -0.4386,-1.8361 -0.56268,-2.77013 -0.17896,-1.34714 0.8018,-3.2201 -0.2597,-4.06864 -1.35807,-1.08561 -3.42855,1.06124 -5.15072,0.82239 -0.64579,-0.0896 -1.16582,-1.0557 -1.77461,-0.82239 -0.61561,0.23593 -0.17432,1.55546 -0.7791,1.8179 -0.6615,0.28706 -1.60852,-0.15385 -2.03432,-0.73581 -0.86113,-1.17696 -0.0241,-2.92091 -0.17313,-4.37162 -0.0807,-0.78571 -0.99254,-1.82714 -0.38955,-2.3373 0.71059,-0.60119 1.73155,1.11039 2.64028,0.90895 1.13563,-0.25175 2.29745,-1.28032 2.51043,-2.42386 0.1631,-0.87573 -0.40845,-1.89515 -1.12536,-2.42387 -0.69135,-0.50987 -2.07186,0.36488 -2.55372,-0.34627 -0.26695,-0.39397 0.51533,-0.94021 0.34627,-1.38506 -0.37247,-0.98008 -1.92653,-0.96853 -2.597,-1.77462 -0.95832,-1.15216 -1.60149,-2.62901 -1.8179,-4.11192 -0.24783,-1.69819 1.40501,-3.56662 0.64925,-5.10743 -0.5383,-1.09746 -1.94408,-1.73272 -3.15968,-1.86118 -1.08893,-0.11507 -2.18294,1.61121 -3.1164,1.0388 -0.49748,-0.30506 0.13265,-1.29935 -0.2597,-1.73134 -1.07987,-1.18896 -3.65733,0.0743 -4.6746,-1.16865 -0.79584,-0.97239 0.20246,-2.56655 -0.17314,-3.76564 -0.17829,-0.56918 -0.73626,-0.95895 -0.95223,-1.51492 -0.40885,-1.05253 -0.14167,-2.30354 -0.60597,-3.33282 -0.39285,-0.87089 -1.80342,-1.29577 -1.77461,-2.25073 0.0268,-0.88863 1.52953,-1.13644 1.77461,-1.99103 0.61334,-2.13866 -1.37923,-4.36873 -1.12536,-6.57907 0.23444,-2.04114 3.64219,-4.05307 2.38957,-5.68161 z"
       id="path7"
       sodipodi:nodetypes="aaaaaaaaaaaaaaaaaaaaaaaaaaaaaaaaaaaaaaaaaaaaaaaaaaaaaaaaaaaaaaaaaaaaaaaaaaaaaaaaaaaaaaaaaaaaaaaaaaaaaaaaaaaaaaaaaaaaaaaaaaaaaaaaaaaaaaaaaaaaaaaaaaaaaaaaaaaaaaaaaaaaaaaaaaaaaaaaaaaaaaaaaaaaaaaaaaaaaaaaaaaaaaaaaaaaaaaaaaaaaaaaaaaaaaaaaaaaaaaaaaaaaaaaaaaaaaa"
       inkscape:label="Europe" /><path
       style="opacity:1;fill:#aaffaa;fill-opacity:1;stroke:none;stroke-width:0.499999;stroke-linecap:round;stroke-linejoin:round;stroke-miterlimit:4;paint-order:markers fill stroke"
       d="m 132.87982,147.75846 c 0.78409,1.0681 1.96495,1.79488 3.07311,2.52125 0.13896,0.0911 0.28785,0.28497 0.44366,0.22724 0.5188,-0.19222 0.31128,-1.08264 0.6276,-1.53656 0.19851,-0.28486 0.74575,-0.35688 0.76828,-0.70335 0.0367,-0.56455 -1.17924,-0.73939 -1.0929,-1.2985 0.10492,-0.6794 1.45683,-0.47829 1.74215,-1.10373 0.49055,-1.07533 0.5162,-2.95641 -0.53022,-3.50595 -0.70695,-0.37127 -1.74447,0.36373 -2.15334,1.04962 -0.30686,0.51476 0.64338,1.60422 0.0757,1.79626 -0.63792,0.2158 -0.48656,-1.60178 -1.15783,-1.65559 -1.17724,-0.0944 -2.23975,1.38398 -2.46715,2.5429 -0.1153,0.5876 0.31659,1.18371 0.67094,1.66641 z"
       id="path33"
       sodipodi:nodetypes="aaaaaaaaaaaaa"
       inkscape:label="Denmark" /><path
       style="fill:#aaffaa;fill-opacity:1;stroke:none;stroke-width:0.499999;stroke-linecap:round;stroke-linejoin:round;stroke-miterlimit:4;paint-order:markers fill stroke"
       d="m 140.7141,250.06942 c 1.06213,-0.23133 2.05225,0.83552 3.13804,0.88731 1.1954,0.057 2.35594,-0.42265 3.53213,-0.6436 1.06258,-0.19961 2.55215,-1.49321 3.18443,-0.6162 0.4559,0.63236 -0.79053,1.34481 -1.14708,2.03806 -0.24418,0.47476 -0.61963,0.9202 -0.67847,1.45083 -0.0814,0.73414 0.48039,1.42554 0.47612,2.16417 -0.005,0.82942 0.18612,2.06711 -0.56268,2.42386 -1.14467,0.54535 -2.29632,-1.07785 -3.41939,-1.6664 -1.53915,-0.80659 -2.9399,-1.88735 -4.54474,-2.55372 -0.58845,-0.24434 -1.38185,-0.0761 -1.83955,-0.5194 -0.56542,-0.54757 -1.18302,-1.6185 -0.71417,-2.25073 0.33949,-0.4578 1.17351,0.21484 1.70969,0.0216 0.35627,-0.1284 0.49564,-0.65519 0.86567,-0.73578 z"
       id="path34"
       sodipodi:nodetypes="aaaaaaaaaaaaaa"
       inkscape:label="Sicilia" /><path
       style="fill:#aaffaa;fill-opacity:1;stroke:none;stroke-width:0.499999;stroke-linecap:round;stroke-linejoin:round;stroke-miterlimit:4;paint-order:markers fill stroke"
       d="m 125.36191,234.07418 c 1.61179,0.37954 1.73163,2.94337 1.89757,4.5909 0.22597,2.24356 0.69733,5.56761 -1.28545,6.64148 -0.52308,0.2833 -1.13376,-0.96411 -1.65273,-0.67333 -0.55016,0.30825 0.28499,1.64707 -0.30606,1.86696 -0.9843,0.36619 -2.00311,-1.05515 -2.41786,-2.01999 -0.57728,-1.34295 0.40172,-2.92034 0.27545,-4.37665 -0.11692,-1.34846 -1.83853,-2.92818 -0.94878,-3.94816 0.40439,-0.46358 1.25019,0.37031 1.83635,0.18363 1.09553,-0.34891 1.48237,-2.52837 2.60151,-2.26484 z"
       id="path35"
       sodipodi:nodetypes="aaaaaaaaaa"
       inkscape:label="Unkown" /><path
       style="fill:#aaffaa;fill-opacity:1;stroke:none;stroke-width:0.499999;stroke-linecap:round;stroke-linejoin:round;stroke-miterlimit:4;paint-order:markers fill stroke"
       d="m 124.78039,233.24782 c -1.0624,0.24324 -1.98824,-1.22001 -2.38726,-2.23423 -0.54286,-1.37985 -0.63132,-3.28894 0.30606,-4.43786 0.48194,-0.59069 1.63105,-0.1088 2.20363,-0.61212 0.37428,-0.32901 0.0835,-1.39664 0.58151,-1.37727 0.96712,0.0376 0.87095,1.78785 0.91818,2.75454 0.0694,1.42136 -0.53337,2.80134 -0.94879,4.16241 -0.18196,0.59617 -0.0657,1.60542 -0.67333,1.74453 z"
       id="path36"
       sodipodi:nodetypes="aaaaaaaa"
       inkscape:label="Unkown" /><path
       style="fill:#aaffaa;fill-opacity:1;stroke:none;stroke-width:0.499999;stroke-linecap:round;stroke-linejoin:round;stroke-miterlimit:4;paint-order:markers fill stroke"
       d="m 76.086353,123.83161 c 1.647768,2.71267 -6.624676,5.58067 -4.835737,8.20239 1.6657,2.44111 6.707228,-3.54028 8.753295,-1.40787 1.629038,1.69779 -0.451025,4.76736 -1.407872,6.91694 -0.990749,2.22574 -5.539101,3.75217 -4.346043,5.87634 0.782499,1.3932 3.377446,-1.20402 4.774525,-0.42848 1.938692,1.0762 1.946664,3.986 2.999383,5.93754 0.972035,1.80197 2.101582,3.51651 3.060594,5.32544 1.243832,2.34617 2.807916,4.59514 3.489076,7.16179 0.319948,1.20558 -0.798256,3.05001 0.244846,3.73392 0.707052,0.46358 1.541816,-0.85038 2.387264,-0.85697 0.883962,-0.007 1.979235,0.14982 2.509687,0.85697 1.07856,1.43783 0.878654,3.70469 0.244848,5.38664 -0.529205,1.40437 -3.43467,1.77644 -3.121806,3.24423 0.192731,0.90419 2.303816,0.15552 2.570898,1.04061 0.271405,0.89941 -0.813335,1.7997 -1.591508,2.32605 -2.337272,1.58092 -5.462034,1.49966 -8.263602,1.83635 -2.958319,0.35553 -6.352631,-1.29941 -8.936934,0.18364 -1.016767,0.58349 -0.747624,2.56471 -1.836357,2.99938 -1.098583,0.4386 -2.254883,-1.07105 -3.427865,-0.91818 -1.422932,0.18545 -2.777216,3.21193 -3.733921,2.14242 -1.197188,-1.33834 2.191471,-2.84897 3.183017,-4.34605 0.74778,-1.12903 0.90363,-2.82033 2.081202,-3.48907 1.312947,-0.74562 3.198445,0.71246 4.529679,0 0.648627,-0.34713 1.543534,-1.17359 1.224238,-1.83636 -1.253162,-2.60124 -6.653655,1.36961 -8.630875,-0.73454 -0.614941,-0.65442 -0.474415,-1.89603 -0.06121,-2.69332 0.690046,-1.33147 3.140365,-1.1325 3.733924,-2.50969 0.44211,-1.02579 0.434927,-2.78023 -0.550907,-3.30544 -0.435178,-0.23184 -1.02004,0.98151 -1.346661,0.61212 -0.776535,-0.87822 0.837137,-2.38633 1.836357,-2.99938 1.099114,-0.67434 2.940678,0.60187 3.856347,-0.30606 1.323573,-1.31239 1.356097,-3.91996 0.489696,-5.57028 -0.403502,-0.76859 -1.877215,-0.50873 -2.264841,-1.28545 -0.638512,-1.27944 1.652623,-3.3427 0.550907,-4.25422 -1.083765,-0.89667 -2.647032,1.66617 -4.009377,1.31605 -1.202469,-0.30903 -2.4232,-1.48792 -2.540293,-2.72393 -0.101174,-1.06798 1.699155,-1.65127 1.713933,-2.72393 0.01519,-1.10218 -0.581329,-2.82113 -1.683326,-2.84635 -1.73127,-0.0396 -1.208241,4.90769 -2.846353,4.34604 -2.033232,-0.69712 0.213329,-4.29985 0.5203,-6.42724 0.135446,-0.93868 1.39559,-2.29858 0.581515,-2.78514 -1.006869,-0.6018 -1.562025,2.57485 -2.693324,2.26484 -0.83396,-0.22853 -0.939331,-1.58771 -0.856964,-2.44848 0.115837,-1.21056 1.421541,-2.00925 1.836354,-3.15241 0.642469,-1.77054 0.446541,-3.75498 0.948785,-5.57028 0.592585,-2.14183 0.526482,-5.04627 2.417868,-6.213 1.107634,-0.68326 2.585799,0.34087 3.886954,0.36727 1.521971,0.0309 3.769976,-1.54591 4.560284,-0.24485 z"
       id="path37"
       sodipodi:nodetypes="aaaaaaaaaaaaaaaaaaaaaaaaaaaaaaaaaaaaaaaaaaaaaaaaa"
       inkscape:label="England" /><path
       style="opacity:1;fill:#aaffaa;fill-opacity:1;stroke:none;stroke-width:0.499999;stroke-linecap:round;stroke-linejoin:round;stroke-miterlimit:4;paint-order:markers fill stroke"
       d="m 58.334909,148.22454 c -1.999081,0.39399 -4.651137,1.32786 -5.141796,3.30544 -0.200205,0.80692 1.431307,1.36784 1.224238,2.17302 -0.251028,0.97612 -1.594342,1.34219 -2.570898,1.59151 -1.455231,0.37153 -3.497486,-1.36403 -4.499073,-0.24485 -1.034594,1.15606 0.986479,3.05535 0.765149,4.59089 -0.106755,0.74064 -1.334248,1.36118 -0.97939,2.01999 0.702707,1.3046 3.86523,-0.79761 4.407254,0.58152 0.585784,1.49047 -2.271097,2.31 -3.060594,3.70332 -0.512214,0.90396 -0.212994,2.31 -1.040601,2.93816 -0.358388,0.27202 -1.041238,-0.23858 -1.34666,0.0918 -0.664869,0.71921 -0.385427,2.05147 0.0306,2.93817 0.488828,1.04186 1.501677,2.0185 2.632112,2.23424 1.936254,0.36953 3.835275,-1.02107 5.600886,-1.89757 1.467459,-0.72849 2.522146,-2.21932 4.070588,-2.75454 1.092299,-0.37755 2.56682,0.49043 3.458472,-0.24484 0.880182,-0.72581 0.419045,-2.26524 0.887571,-3.30544 0.296323,-0.65788 1.071879,-1.09457 1.19363,-1.80576 0.298106,-1.74135 -1.025312,-3.39437 -1.285449,-5.14179 -0.118826,-0.79819 -0.537076,-1.72556 -0.122422,-2.41787 0.515884,-0.86133 2.20735,-0.42454 2.723927,-1.28545 0.536051,-0.89336 0.0924,-2.10927 -0.153029,-3.1218 -0.290388,-1.19802 -0.612015,-2.54426 -1.530297,-3.36666 -0.463833,-0.4154 -1.153018,-0.60719 -1.775143,-0.58151 -0.91819,0.0379 -1.842396,1.66908 -2.540293,1.07121 -0.223613,-0.19156 0.373589,-0.60937 0.214241,-0.85697 -0.213329,-0.33148 -0.776267,-0.29044 -1.163023,-0.21422 z"
       id="path38"
       sodipodi:nodetypes="aaaaaaaaaaaaaaaaaaaaaaaaaaa"
       inkscape:label="Ireland" /></g><g
     inkscape:groupmode="layer"
     id="layer5"
     inkscape:label="Towns"
     style="display:inline"><circle
       style="fill:#005500;fill-opacity:1;stroke:none;stroke-width:0.499998;stroke-linecap:round;stroke-linejoin:round;stroke-miterlimit:4;paint-order:markers fill stroke"
       id="path41"
       cx="-22.162781"
       cy="122.50749"
       r="1.1481011"
       inkscape:label="BigTown" /><g
       inkscape:groupmode="layer"
       id="layer6"
       inkscape:label="BigTowns"><use
         x="0"
         y="0"
         xlink:href="#path41"
         id="use41"
         inkscape:label="Stockholm"
         transform="translate(182.63245,-4.8201389)" /><use
         x="0"
         y="0"
         xlink:href="#path41"
         id="use42"
         inkscape:label="Helsinki"
         transform="translate(215.40868,-13.841487)" /><use
         x="0"
         y="0"
         xlink:href="#path41"
         id="use43"
         inkscape:label="Tallin"
         transform="translate(210.12573,-4.1893093)" /><use
         x="0"
         y="0"
         xlink:href="#path41"
         id="use44"
         inkscape:label="Copenhagen"
         transform="translate(159.48758,23.373178)" /><use
         x="0"
         y="0"
         xlink:href="#path41"
         id="use45"
         inkscape:label="Berlin"
         transform="translate(164.26211,44.307638)" /><use
         x="0"
         y="0"
         xlink:href="#path41"
         id="use46"
         inkscape:label="London"
         transform="translate(109.5387,50.979731)" /><use
         x="0"
         y="0"
         xlink:href="#path41"
         id="use47"
         inkscape:label="Paris"
         transform="translate(119.51623,67.812994)" /><use
         x="0"
         y="0"
         xlink:href="#path41"
         id="use48"
         inkscape:label="Brussels"
         transform="translate(128.08633,55.39068)" /><use
         x="0"
         y="0"
         xlink:href="#path41"
         id="use49"
         inkscape:label="Amsterdam"
         transform="translate(132.8475,44.483282)" /><use
         x="0"
         y="0"
         xlink:href="#path41"
         id="use50"
         inkscape:label="Warszawa"
         transform="translate(194.67149,46.442061)" /><use
         x="0"
         y="0"
         xlink:href="#path41"
         id="use51"
         inkscape:label="Rome"
         transform="translate(160.26299,107.54636)" /><use
         x="0"
         y="0"
         xlink:href="#path41"
         id="use52"
         inkscape:label="Madrid"
         transform="translate(118.39407,110.66816)" /><use
         x="0"
         y="0"
         xlink:href="#path41"
         id="use53"
         inkscape:label="Lisbon"
         transform="translate(73.036078,124.31841)" /><use
         x="0"
         y="0"
         xlink:href="#path41"
         id="use54"
         inkscape:label="Dublin"
         transform="translate(85.278452,38.989066)" /><use
         x="0"
         y="0"
         xlink:href="#path41"
         id="use55"
         inkscape:label="Bern"
         transform="translate(140.28903,79.375868)" /><use
         x="0"
         y="0"
         xlink:href="#path41"
         id="use56"
         inkscape:label="Vienna"
         transform="translate(175.08883,72.5371)" /><use
         x="0"
         y="0"
         xlink:href="#path41"
         id="use57"
         inkscape:label="Prague"
         transform="translate(169.21249,59.988667)" /><use
         x="0"
         y="0"
         xlink:href="#path41"
         id="use58"
         inkscape:label="Brattislava"
         transform="translate(179.92457,70.823169)" /><use
         x="0"
         y="0"
         xlink:href="#path41"
         id="use59"
         inkscape:label="Budapest"
         transform="translate(181.0876,78.903137)" /><use
         x="0"
         y="0"
         xlink:href="#path41"
         id="use60"
         inkscape:label="Bucharest"
         transform="translate(211.14263,91.635204)" /><use
         x="0"
         y="0"
         xlink:href="#path41"
         id="use61"
         inkscape:label="Sofia"
         transform="translate(204.71538,102.16365)" /><use
         x="0"
         y="0"
         xlink:href="#path41"
         id="use62"
         inkscape:label="Belgrad"
         transform="translate(192.47301,92.492174)" /><use
         x="0"
         y="0"
         xlink:href="#path41"
         id="use63"
         inkscape:label="Pristina"
         transform="translate(197.18632,108.71332)" /><use
         x="0"
         y="0"
         xlink:href="#path41"
         id="use64"
         inkscape:label="Kiev"
         transform="translate(233.19805,58.071827)" /><use
         x="0"
         y="0"
         xlink:href="#path41"
         id="use65"
         inkscape:label="Minsk"
         transform="translate(220.81902,37.901795)" /><use
         x="0"
         y="0"
         xlink:href="#path41"
         id="use66"
         inkscape:label="Villnius"
         transform="translate(209.99819,31.495862)" /><use
         x="0"
         y="0"
         xlink:href="#path41"
         id="use67"
         inkscape:label="Riga"
         transform="translate(206.18926,14.788498)" /><use
         x="0"
         y="0"
         xlink:href="#path41"
         id="use68"
         inkscape:label="Athen"
         transform="translate(205.58329,128.45052)" /><use
         x="0"
         y="0"
         xlink:href="#path41"
         id="use69"
         inkscape:label="Tirantë"
         transform="translate(189.4819,112.9551)" /><use
         x="0"
         y="0"
         xlink:href="#path41"
         id="use70"
         inkscape:label="Porgorica"
         transform="translate(186.71177,103.8656)" /><use
         x="0"
         y="0"
         xlink:href="#path41"
         id="use71"
         inkscape:label="Sarajevo"
         transform="translate(183.5088,97.026836)" /><use
         x="0"
         y="0"
         xlink:href="#path41"
         id="use72"
         inkscape:label="Zagreb"
         transform="translate(175.11183,87.158235)" /><use
         x="0"
         y="0"
         xlink:href="#path41"
         id="use73"
         inkscape:label="Ljubljana"
         transform="translate(169.2253,84.301536)" /><use
         x="0"
         y="0"
         xlink:href="#path41"
         id="use74"
         inkscape:label="Oslo"
         transform="translate(152.95077,-9.3635841)" /></g><circle
       style="fill:#005500;fill-opacity:1;stroke:none;stroke-width:0.499999;stroke-linecap:round;stroke-linejoin:round;stroke-miterlimit:4;paint-order:markers fill stroke"
       id="circle74"
       cx="-19.003099"
       cy="122.5075"
       r="0.53470826"
       inkscape:label="SmallTown" /><use
       x="0"
       y="0"
       xlink:href="#circle74"
       id="use75"
       transform="translate(91.647875,115.11311)"
       inkscape:label="Madrid" /><use
       x="0"
       y="0"
       xlink:href="#circle74"
       id="use76"
       transform="translate(87.883345,133.84394)"
       inkscape:label="Malaga" /><use
       x="0"
       y="0"
       xlink:href="#circle74"
       id="use77"
       transform="translate(73.039467,111.65464)"
       inkscape:label="Porto" /><use
       x="0"
       y="0"
       xlink:href="#circle74"
       id="use78"
       transform="translate(127.73074,99.389272)"
       inkscape:label="Marseille" /><use
       x="0"
       y="0"
       xlink:href="#circle74"
       id="use79"
       transform="translate(124.79257,87.697805)"
       inkscape:label="Lyon" /><use
       x="0"
       y="0"
       xlink:href="#circle74"
       id="use80"
       transform="translate(105.14356,85.065695)"
       inkscape:label="Nantes" /><use
       x="0"
       y="0"
       xlink:href="#circle74"
       id="use81"
       transform="translate(114.17088,56.140274)"
       inkscape:label="Calais" /><use
       x="0"
       y="0"
       xlink:href="#circle74"
       id="use82"
       transform="translate(90.752597,58.222431)"
       inkscape:label="Plymouth" /><use
       x="0"
       y="0"
       xlink:href="#circle74"
       id="use83"
       transform="translate(96.934996,44.021277)"
       inkscape:label="Birmingham" /><use
       x="0"
       y="0"
       xlink:href="#circle74"
       id="use84"
       transform="translate(100.73013,33.921319)"
       inkscape:label="Leeds" /><use
       x="0"
       y="0"
       xlink:href="#circle74"
       id="use85"
       transform="translate(92.755337,22.183973)"
       inkscape:label="Edinbourg" /><use
       x="0"
       y="0"
       xlink:href="#circle74"
       id="use86"
       transform="translate(82.499361,29.814286)"
       inkscape:label="Belfast" /><use
       x="0"
       y="0"
       xlink:href="#circle74"
       id="use87"
       transform="translate(71.404399,49.401584)"
       inkscape:label="Cork" /><use
       x="0"
       y="0"
       xlink:href="#circle74"
       id="use88"
       transform="translate(144.01713,93.85498)"
       inkscape:label="Genoa" /><use
       x="0"
       y="0"
       xlink:href="#circle74"
       id="use89"
       transform="translate(145.1425,86.671954)"
       inkscape:label="Millan" /><use
       x="0"
       y="0"
       xlink:href="#circle74"
       id="use90"
       transform="translate(155.35197,90.434691)"
       inkscape:label="Venice" /><use
       x="0"
       y="0"
       xlink:href="#circle74"
       id="use91"
       transform="translate(152.65865,98.514658)"
       inkscape:label="Florence" /><use
       x="0"
       y="0"
       xlink:href="#circle74"
       id="use92"
       transform="translate(173.09106,113.06319)"
       inkscape:label="Bari" /><use
       x="0"
       y="0"
       xlink:href="#circle74"
       id="use93"
       transform="translate(90.752597,58.222431)"
       inkscape:label="Plymouth" /><use
       x="0"
       y="0"
       xlink:href="#circle74"
       id="use94"
       transform="translate(143.55258,58.405113)"
       inkscape:label="Frankfurt" /><use
       x="0"
       y="0"
       xlink:href="#circle74"
       id="use95"
       transform="translate(144.04227,43.102146)"
       inkscape:label="Bremen" /></g><g
     inkscape:groupmode="layer"
     id="layer4"
     inkscape:label="Map Overlay"><path
       style="fill:none;stroke:#000000;stroke-width:0.499999;stroke-linecap:round;stroke-linejoin:round;stroke-miterlimit:4;paint-order:stroke markers fill"
       d="m 184.82924,60.75278 c 0,0 0.13487,-1.295855 -0.0612,-1.897568 -0.17972,-0.551536 -0.53899,-1.060923 -0.97938,-1.438478 -0.18015,-0.154447 -0.5057,-0.112331 -0.64273,-0.30606 -0.45022,-0.636502 -0.41222,-1.564594 -0.24485,-2.326052 0.13259,-0.603222 0.71992,-1.017859 0.94879,-1.591509 0.27515,-0.689642 0.57807,-1.435795 0.48969,-2.17302 -0.1613,-1.345425 -1.71197,-2.290296 -1.80575,-3.642106 -0.0692,-0.997709 1.41665,-1.962428 0.94879,-2.846353 -0.22814,-0.431021 -1.18889,0.03786 -1.40788,-0.397878 -0.2059,-0.409694 0.4281,-0.831084 0.4897,-1.285449 0.1308,-0.964701 -0.54654,-1.972538 -0.27546,-2.907564 0.11137,-0.384148 0.7239,-0.548959 0.73455,-0.948783 0.0215,-0.806252 -0.67903,-1.585701 -1.37727,-1.989386 -0.21271,-0.122974 -0.56003,0.111747 -0.73454,-0.06121 -0.47299,-0.468794 0.21534,-1.456186 -0.18364,-1.989387 -0.9273,-1.239251 -3.21712,-0.623374 -4.31544,-1.713931 -0.28903,-0.28699 -0.18642,-0.82983 -0.45908,-1.132419 -0.47966,-0.532313 -1.46851,-0.43612 -1.89757,-1.009997 -0.24321,-0.325295 -0.003,-0.867096 -0.24485,-1.19363 -0.45612,-0.616616 -1.55714,-0.490233 -2.01999,-1.101815 -0.35994,-0.475598 0.0568,-1.358542 -0.39788,-1.744538 -0.76362,-0.648239 -2.45328,-1.023348 -2.99938,-0.183637 -0.49505,0.761218 1.24456,1.509896 1.25484,2.417871 0.0136,1.204448 -1.89079,2.077476 -1.59151,3.244228 0.11463,0.446883 1.09259,0.336125 1.13242,0.795753 0.0498,0.574955 -0.65945,1.105588 -1.22423,1.224238 -1.40353,0.294857 -2.64664,-1.113936 -4.00938,-1.560902 -0.93353,-0.30619 -1.97252,-1.214212 -2.84635,-0.765148 -0.38764,0.199208 -0.3709,0.797424 -0.45909,1.224237 -0.25422,1.230346 0.17219,2.559639 -0.18364,3.764529 -0.16702,0.565541 -0.3103,1.409912 -0.88757,1.530297 -0.84295,0.17579 -1.22165,-1.581733 -2.0812,-1.530297 -1.13113,0.06769 -1.8473,1.385363 -2.47908,2.326053 -0.77959,1.160772 -0.48953,2.95075 -1.49969,3.917558 -0.27969,0.267681 -0.93919,0.01595 -1.10182,0.367271 -0.54037,1.167336 1.57075,2.301373 1.43848,3.580894 -0.10213,0.987897 -1.12895,1.635261 -1.65272,2.479083 -0.68937,1.110611 -1.55371,2.154435 -1.95878,3.397258 -0.2957,0.90728 0.13732,2.001359 -0.30606,2.84635 -0.36299,0.691783 -1.03231,1.288378 -1.77514,1.530297 -0.59372,0.193357 -1.40942,-0.577926 -1.86697,-0.15303 -1.91384,1.777257 0.64716,5.289912 0.0612,7.83512 -0.62337,2.707726 -4.44209,4.789305 -3.70332,7.467848 0.19036,0.690188 1.49051,0.520203 1.80575,1.163027 0.41482,0.845887 -0.0512,1.893748 -0.24485,2.815746 -0.1174,0.558838 -0.0382,1.37065 -0.5509,1.622113 -0.90086,0.441851 -1.85088,-1.105063 -2.84636,-0.97939 -1.03027,0.130065 -1.90093,0.947397 -2.6015,1.713934 -0.7421,0.811984 -1.17579,1.877161 -1.5609,2.907561 -0.38818,1.038612 -0.82197,2.138899 -0.73455,3.244231 0.0563,0.711989 0.72769,1.278425 0.79576,1.989386 0.098,1.023747 -0.60998,2.001954 -0.58151,3.029988 0.0373,1.345526 0.88694,2.574695 0.97939,3.917558 0.098,1.42294 -0.91587,2.903039 -0.45909,4.254225 0.44603,1.31939 2.60073,1.664903 2.87695,3.029983 0.16648,0.82274 -0.25769,1.80179 -0.88757,2.35666 -0.49576,0.43673 -1.64308,-0.13692 -1.92817,0.45909 -0.6242,1.30495 1.63248,2.49013 1.86696,3.91756 0.19486,1.18625 0.0213,2.46605 -0.42848,3.58089 -0.5313,1.317 -2.04774,2.07701 -2.5709,3.39726 -0.52917,1.33543 -0.17945,2.87586 -0.45909,4.28483 -0.12004,0.60481 -0.0268,1.40551 -0.5203,1.77515 -0.2613,0.19571 -0.73162,0.21257 -0.97939,0 -0.40737,-0.34949 0.21348,-1.31217 -0.24485,-1.59151 -0.19362,-0.11801 -0.64497,0.2162 -0.64497,0.2162"
       id="path5"
       inkscape:label="Sweden border"
       sodipodi:nodetypes="caaaaaaaaaaaaaaaaaaaaaaaaaaaaaaaaaaaaaaaaaaaaaaaaaaaaaaaaaaaaaaaac" /><path
       style="fill:none;stroke:#000000;stroke-width:0.499999;stroke-linecap:round;stroke-linejoin:round;stroke-miterlimit:4;paint-order:stroke markers fill"
       d="m 170.66582,26.629889 c 0,0 0.33555,-0.521968 0.60499,-0.53833 0.51411,-0.03122 0.79846,1.086803 1.27014,0.87992 0.27119,-0.118948 0.14765,-0.584864 0.12243,-0.87992 -0.0372,-0.434788 -0.51167,-0.825916 -0.39788,-1.247192 0.12903,-0.477676 0.61431,-0.91007 1.10181,-0.994693 0.60059,-0.104253 1.25239,0.272939 1.69098,0.696285 1.61212,1.556099 1.09116,4.64583 2.77749,6.121188 0.87811,0.768254 2.20904,1.247545 3.35135,1.009994 1.11265,-0.231385 1.46775,-2.125343 2.60151,-2.203627 1.71107,-0.118147 2.70059,3.2385 4.34604,2.754535 1.24583,-0.366428 0.78991,-2.551063 1.63741,-3.534987 0.50229,-0.583143 1.59162,-0.57799 1.92818,-1.270145 0.64464,-1.325756 -0.49071,-2.938254 -0.36727,-4.407254 0.1067,-1.269833 0.38448,-2.560765 0.94878,-3.703319 0.526,-1.065017 1.07788,-2.421451 2.20363,-2.800442 0.72933,-0.245535 1.47541,0.709604 2.23423,0.581512 1.29458,-0.218531 1.99027,-2.459592 3.27484,-2.188324 1.22951,0.259641 1.07993,2.349119 2.01999,3.183017 0.86707,0.769146 2.43209,0.579722 3.13711,1.499691 0.54589,0.712323 0.65118,1.764621 0.48969,2.647413 -0.21786,1.190989 -1.72709,1.905737 -1.88226,3.106503 -0.0668,0.517031 0.44381,1.499699 0.44381,1.499699"
       id="path6"
       sodipodi:nodetypes="caaaaaaaaaaaaaaaaaaaaac"
       inkscape:label="Finland Border" /><path
       style="fill:none;stroke:#000000;stroke-width:0.499999;stroke-linecap:round;stroke-linejoin:round;stroke-miterlimit:4;paint-order:stroke markers fill"
       d="m 116.62391,162.19232 c 0,0 -0.4844,3.07445 -0.58151,4.62532 -0.0459,0.73311 0.35371,1.55986 0,2.20363 -0.24736,0.4502 -1.09749,0.3546 -1.30075,0.82636 -0.12747,0.29584 0.3521,0.67422 0.18363,0.94879 -0.59107,0.96331 -2.73783,-0.0691 -3.25953,0.93348 -0.3537,0.67973 0.72401,1.4072 0.74985,2.17302 0.0315,0.93495 0.15738,2.4265 -0.73455,2.70862 -0.85996,0.272 -1.32981,-1.2303 -2.0812,-1.72923 -0.61771,-0.41017 -1.23339,-0.99089 -1.97408,-1.0253 -1.50166,-0.0698 -2.67717,1.60796 -4.17771,1.69863 -1.04287,0.063 -3.02451,-0.82234 -3.02451,-0.82234"
       id="path8"
       sodipodi:nodetypes="caaaaaaaaaac"
       inkscape:label="Netherlands" /><path
       style="fill:none;stroke:#000000;stroke-width:0.499999;stroke-linecap:round;stroke-linejoin:round;stroke-miterlimit:4;paint-order:markers fill stroke"
       d="m 111.68105,176.61154 c 0,0 1.78255,3.19901 1.515,4.88165 -0.0707,0.44449 -0.784,0.65175 -0.78045,1.10181 0.006,0.80292 1.30006,1.15003 1.42317,1.94348 0.10066,0.64876 -0.0858,1.49594 -0.62742,1.86696 -0.74143,0.50788 -1.826,0.113 -2.69332,-0.12242 -1.15168,-0.31261 -2.46204,-0.70568 -3.16771,-1.66803 -0.49048,-0.66889 0.32503,-2.13717 -0.44379,-2.44847 -0.61669,-0.2497 -0.98383,1.35077 -1.62212,1.16303 -0.70518,-0.20742 -0.34085,-1.48561 -0.81105,-2.0506 -1.03936,-1.2489 -2.63179,-1.9617 -4.1318,-2.5862 -0.599695,-0.24967 -1.435607,0.0129 -1.897572,-0.44379 -0.47071,-0.46533 -0.474403,-1.92816 -0.474403,-1.92816"
       id="path9"
       inkscape:label="Belgium"
       sodipodi:nodetypes="caaaaaaaaaaac" /><path
       style="fill:none;stroke:#000000;stroke-width:0.499999;stroke-linecap:round;stroke-linejoin:round;stroke-miterlimit:4;paint-order:markers fill stroke"
       d="m 145.0502,157.67881 c 0,0 0.96858,2.80536 0.77133,4.22248 -0.13965,1.00336 -1.58262,1.74286 -1.34178,2.72684 0.27237,1.11278 2.29874,0.99017 2.77013,2.03432 0.56623,1.25422 -0.48518,2.74081 -0.36791,4.11192 0.11005,1.28667 0.84066,2.46196 0.99552,3.74401 0.13325,1.10313 0.89954,2.781 -0.0649,3.33281 -0.75413,0.43148 -1.47781,-1.62838 -2.27237,-1.27686 -0.5009,0.2216 -0.0104,1.18654 -0.36791,1.60149 -1.10791,1.28582 -3.23603,1.0736 -4.73953,1.86118 -1.23886,0.64895 -3.11397,0.98868 -3.4843,2.3373 -0.52035,1.89496 1.34899,3.75479 2.53207,5.32385 1.07698,1.42835 4.09683,1.76179 4.02535,3.54923 -0.0702,1.7559 -3.54446,1.53747 -4.22012,3.15969 -0.38088,0.91447 1.00969,2.15388 0.41119,2.94326 -1.00717,1.3284 -3.36021,0.1885 -4.95594,0.67089 -0.83693,0.25301 -1.48529,1.11236 -2.35894,1.14701 -0.92897,0.0368 -1.721,-1.32853 -2.597,-1.01716 -0.53875,0.1915 -0.30615,1.29935 -0.84403,1.49328 -1.00954,0.36398 -1.97573,-0.85431 -3.00819,-1.14701 -1.33531,-0.37856 -2.7026,-0.752 -4.09027,-0.7791 -1.26178,-0.0246 -2.77068,1.36599 -3.74401,0.56268 -1.06916,-0.8824 -0.53709,-2.81756 -0.17313,-4.1552 0.41923,-1.54078 2.98627,-2.47673 2.59699,-4.02535 -0.28338,-1.12735 -1.92827,-1.38865 -3.05147,-1.68805 -0.74823,-0.19945 -1.61101,0.2685 -2.32277,-0.0365 -0.84652,-0.36275 -1.93683,-1.97038 -1.93683,-1.97038"
       id="path10"
       sodipodi:nodetypes="caaaaaaaaaaaaaaaaaaaaaaaaac"
       inkscape:label="Germany Border" /><path
       style="fill:none;stroke:#000000;stroke-width:0.499999;stroke-linecap:round;stroke-linejoin:round;stroke-miterlimit:4;paint-order:markers fill stroke"
       d="m 118.09859,198.28092 c 0,0 -3.31366,2.20186 -4.47986,3.76565 -0.93096,1.24835 -3.04193,3.26972 -1.86118,4.28505 0.76184,0.65511 1.5777,-1.84015 2.55372,-1.60148 1.02395,0.25039 0.72233,2.14525 1.60148,2.72685 0.93432,0.6181 2.32337,0.91865 3.33282,0.43283 1.07912,-0.51935 0.6655,-3.00551 1.86118,-3.07312 1.43774,-0.0813 1.21099,3.59502 2.64028,3.41939 1.39148,-0.17098 0.35832,-3.40806 1.68805,-3.85222 1.11519,-0.3725 2.05234,2.31478 3.07312,1.73133 0.65147,-0.37236 -0.50078,-1.73397 0.0433,-2.25073 0.32447,-0.30817 1.03588,0.36991 1.34178,0.0433 0.50541,-0.53963 0.3313,-1.71082 -0.21641,-2.20746 -0.52372,-0.47489 -1.46041,0.25211 -2.12089,0 -0.63721,-0.24323 -1.42966,-0.68817 -1.52573,-1.36342 -0.0758,-0.53299 0.85637,-1.36933 0.85637,-1.36933"
       id="path11"
       sodipodi:nodetypes="caaaaaaaaaaaaaac"
       inkscape:label="Switzerland" /><path
       style="fill:none;stroke:#000000;stroke-width:0.499999;stroke-linecap:round;stroke-linejoin:round;stroke-miterlimit:4;paint-order:markers fill stroke"
       d="m 116.1853,207.62123 c 0,0 -1.01657,0.58463 -1.10699,1.09594 -0.18755,1.06058 1.81942,1.94077 1.37727,2.92286 -0.28362,0.62998 -1.72906,-0.0584 -1.98939,0.58152 -0.39504,0.97112 1.38416,1.70334 1.5456,2.73923 0.1083,0.6949 -0.80045,1.46903 -0.42848,2.0659 0.58499,0.93869 2.71066,-0.15872 3.21362,0.82636 0.39405,0.77178 -0.95209,2.41904 -0.95209,2.41904"
       id="path12"
       sodipodi:nodetypes="caaaaaac"
       inkscape:label="France 1" /><path
       style="fill:none;stroke:#000000;stroke-width:0.499999;stroke-linecap:round;stroke-linejoin:round;stroke-miterlimit:4;paint-order:markers fill stroke"
       d="m 100.56877,227.36732 c 0,0 -2.209935,0.57737 -3.332774,0.5194 -0.81955,-0.0423 -1.61137,-0.34167 -2.380584,-0.62761 -1.572539,-0.58456 -3.011755,-2.93574 -4.523107,-2.20745 -0.299578,0.14436 0.056,0.78315 -0.216419,0.97388 -0.953629,0.66766 -2.339158,-0.14967 -3.462665,-0.45448 -0.823692,-0.22347 -1.565079,-0.68217 -2.358941,-0.99552 -0.757881,-0.29915 -1.80485,-0.19241 -2.294016,-0.84402 -0.186683,-0.24868 0.123465,-0.68321 -0.06493,-0.93059 -0.216963,-0.2849 -1.013261,-0.357 -1.013261,-0.357"
       id="path13"
       sodipodi:nodetypes="caaaaaaaac"
       inkscape:label="France 2" /><path
       style="fill:none;stroke:#000000;stroke-width:0.499999;stroke-linecap:round;stroke-linejoin:round;stroke-miterlimit:4;paint-order:markers fill stroke"
       d="m 130.14486,202.57825 c 0,0 1.20289,0.14207 1.76672,-0.0282 0.77751,-0.23479 1.28553,-1.04341 2.05059,-1.31605 0.9286,-0.33092 2.06357,-0.7915 2.93817,-0.33667 0.83434,0.43388 0.58142,1.93247 1.34666,2.47908 1.24605,0.89005 3.91687,-0.63816 4.52968,0.76515 0.2831,0.64829 -1.19989,1.06871 -1.16302,1.77515 0.0261,0.49963 0.77336,0.69447 0.94878,1.16302 0.20354,0.54366 0.056,1.74063 0.056,1.74063"
       id="path14"
       sodipodi:nodetypes="caaaaaaac"
       inkscape:label="Italy" /><path
       style="fill:none;stroke:#000000;stroke-width:0.499999;stroke-linecap:round;stroke-linejoin:round;stroke-miterlimit:4;paint-order:markers fill stroke"
       d="m 142.77668,204.14156 c 0,0 2.53205,1.1329 3.77984,0.81108 0.70721,-0.1824 0.97558,-1.16481 1.65272,-1.43848 1.18394,-0.47849 2.75729,0.50039 3.82574,-0.19894 0.3722,-0.24362 0.19355,-1.00584 0.59681,-1.19363 0.23778,-0.11072 0.5715,0.007 0.76515,0.18363 0.57643,0.52657 1.07295,1.50819 0.74985,2.21893 -0.354,0.77871 -1.79938,0.34389 -2.37196,0.97939 -0.66227,0.73505 -0.13524,2.15364 -0.84167,2.84636 -0.38524,0.37776 -1.22323,0.008 -1.5609,0.42848 -0.38676,0.48199 0.3713,1.44248 -0.0918,1.85166 -0.51747,0.45722 -1.49588,0.23671 -2.0659,-0.15303 -0.41059,-0.28073 -0.15088,-1.27257 -0.64272,-1.34666 -0.52118,-0.0785 -0.59807,0.93079 -1.07121,1.16302 -0.63886,0.31358 -1.41733,0.1317 -2.12711,0.18364 -0.30061,0.022 -0.90262,0.0542 -0.90262,0.0542"
       id="path15"
       sodipodi:nodetypes="caaaaaaaaaaaaaac"
       inkscape:label="Slovenia" /><path
       style="fill:none;stroke:#000000;stroke-width:0.499999;stroke-linecap:round;stroke-linejoin:round;stroke-miterlimit:4;paint-order:markers fill stroke"
       d="m 143.5059,191.24738 c 0,0 1.23135,0.77269 1.92608,0.80074 0.53795,0.0217 1.11961,-0.15715 1.53656,-0.49776 0.69296,-0.56608 0.4859,-2.01375 1.32014,-2.3373 1.68451,-0.65331 3.35103,1.52837 5.15072,1.68805 0.4644,0.0412 0.92804,-0.28697 1.38506,-0.19477 0.46933,0.0947 1.0371,0.2992 1.23358,0.73582 0.28623,0.63607 -0.48833,1.36547 -0.38955,2.05595 0.11697,0.81759 1.04778,1.38518 1.12536,2.20745 0.0558,0.59094 -0.0162,1.36273 -0.49776,1.7097 -0.60332,0.43467 -1.92126,-0.76348 -2.22909,-0.0866 -0.14366,0.31589 0.62855,0.42117 0.71418,0.75746 0.20984,0.82409 -0.23392,1.72509 -0.64925,2.46715 -0.35332,0.63126 -1.50014,1.56829 -1.50014,1.56829"
       id="path16"
       sodipodi:nodetypes="caaaaaaaaaaaac"
       inkscape:label="Austria" /><path
       style="opacity:1;fill:none;stroke:#000000;stroke-width:0.499999;stroke-linecap:round;stroke-linejoin:round;stroke-miterlimit:4;paint-order:markers fill stroke"
       d="m 148.2901,176.74791 c 0,0 1.19273,1.21167 1.92383,1.62347 0.86295,0.48607 2.19614,0.1761 2.81574,0.94879 0.30166,0.37619 -0.0313,0.99292 0.15303,1.43848 0.31068,0.75084 0.7203,1.96231 1.5303,1.89757 0.90189,-0.0721 0.49929,-2.03954 1.34666,-2.35666 1.10295,-0.41277 2.88185,0.0765 3.33605,1.16302 0.17424,0.41682 -0.66409,0.78007 -0.58152,1.22424 0.0514,0.27669 0.34588,0.4903 0.61212,0.58151 0.48498,0.16614 1.0503,-0.33305 1.5303,-0.15303 1.27049,0.4765 3.03089,1.63432 2.78514,2.96878 -0.15618,0.84809 -1.69467,0.54504 -2.32605,1.13242 -0.75972,0.70678 -0.73226,2.06878 -1.56091,2.69332 -0.92923,0.70034 -2.35372,0.31279 -3.38556,0.85062 -0.21355,0.11131 -0.5456,0.47355 -0.5456,0.47355"
       id="path17"
       sodipodi:nodetypes="caaaaaaaaaaaaac"
       inkscape:label="Czechia" /><path
       style="fill:none;stroke:#000000;stroke-width:0.499999;stroke-linecap:round;stroke-linejoin:round;stroke-miterlimit:4;paint-order:markers fill stroke"
       d="m 167.64256,153.94258 c 0,0 3.81184,0.82175 5.75045,0.90352 2.21837,0.0936 4.49443,-1.03227 6.64399,-0.47611 0.95886,0.24809 1.92727,0.80724 2.48879,1.62312 1.25942,1.82992 1.18556,4.30374 1.40671,6.51414 0.10845,1.08398 0.41109,2.27779 -0.0433,3.26789 -0.48177,1.04976 -2.40593,1.1549 -2.597,2.29402 -0.20841,1.24249 1.56455,2.0651 1.86118,3.28953 0.30087,1.24193 -0.57107,2.62357 -0.15149,3.83058 0.37124,1.06796 2.45272,1.47163 2.20745,2.57536 -0.0721,0.32462 -0.75355,0.11719 -0.90895,0.41119 -0.33198,0.62807 0.70982,1.47652 0.36791,2.09924 -0.3082,0.56133 -1.26801,0.34412 -1.77462,0.73582 -1.70299,1.3167 -3.48164,3.03823 -3.8955,5.15071 -0.21531,1.09901 1.68514,2.48295 0.86567,3.24625 -0.6811,0.63441 -1.86601,-0.39237 -2.64029,-0.90895 -0.49735,-0.33182 -0.65956,-1.06647 -1.19029,-1.34178 -1.14701,-0.595 -2.56198,-0.50319 -3.85221,-0.43284 -1.08522,0.0592 -2.27078,0.12079 -3.18133,0.71418 -0.34571,0.22529 -0.34919,0.8513 -0.73581,0.99551 -0.46406,0.1731 -1.14885,0.0686 -1.45,-0.32462 -0.30293,-0.39555 0.1934,-1.0119 0.0649,-1.49327 -0.0903,-0.33838 -0.2184,-0.8231 -0.56269,-0.88731 -0.64393,-0.12009 -0.92586,1.13142 -1.57984,1.16865 -0.40964,0.0233 -1.06627,-0.61498 -1.06627,-0.61498"
       id="path18"
       sodipodi:nodetypes="caaaaaaaaaaaaaaaaaaaaaaac"
       inkscape:label="Poland" /><path
       style="fill:none;stroke:#000000;stroke-width:0.499999;stroke-linecap:round;stroke-linejoin:round;stroke-miterlimit:4;paint-order:markers fill stroke"
       d="m 173.29673,148.148 c 0,0 2.04189,0.70639 2.99345,1.20896 0.32526,0.17179 0.55979,0.5293 0.91818,0.61212 0.52154,0.12052 1.11512,-0.45834 1.59151,-0.21424 0.46305,0.23726 0.6309,0.86739 0.73454,1.37726 0.20699,1.01837 -0.27681,3.10528 -0.27681,3.10528"
       id="path19"
       sodipodi:nodetypes="caaaac"
       inkscape:label="Russia Small Territory" /><path
       style="opacity:1;fill:none;stroke:#000000;stroke-width:0.499999;stroke-linecap:round;stroke-linejoin:round;stroke-miterlimit:4;paint-order:markers fill stroke"
       d="m 183.27595,157.56511 c 0,0 2.44181,0.10253 3.57328,-0.28121 1.27827,-0.43353 2.5378,-1.16284 3.39726,-2.20363 0.77806,-0.94221 0.72883,-2.36156 1.37726,-3.39726 0.51749,-0.82655 1.22851,-1.52673 1.95878,-2.17302 0.62525,-0.55335 1.76826,-0.65272 2.0506,-1.43848 0.31134,-0.86649 -0.27124,-1.86705 -0.73454,-2.66272 -0.8857,-1.52111 -2.09575,-3.08998 -3.73392,-3.73392 -0.52256,-0.20541 -1.18862,0.32676 -1.68333,0.0612 -0.70606,-0.37901 -0.48392,-1.83186 -1.25485,-2.0506 -0.86907,-0.24659 -1.51937,1.13041 -2.41786,1.22424 -0.78761,0.0823 -1.50942,-0.516 -2.29545,-0.61212 -1.17485,-0.14367 -2.36719,0.0957 -3.55029,0.0612 -1.34994,-0.0394 -2.73539,-0.65527 -4.03998,-0.30606 -1.34916,0.36114 -3.46118,2.36137 -3.46118,2.36137"
       id="path20"
       sodipodi:nodetypes="caaaaaaaaaaaaac"
       inkscape:label="Lithuania" /><path
       style="fill:none;stroke:#000000;stroke-width:0.499999;stroke-linecap:round;stroke-linejoin:round;stroke-miterlimit:4;paint-order:markers fill stroke"
       d="m 194.89859,145.40879 c 0,0 2.87872,-0.48873 4.10119,-1.22423 0.88794,-0.53423 2.18107,-2.21528 2.18107,-2.21528 m -3.30553,-10.24541 c 0,0 -1.61017,-0.23907 -2.41052,-0.38615 -0.8147,-0.14972 -1.69693,-0.1254 -2.43317,-0.505 -1.43761,-0.74121 -1.96363,-3.03132 -3.55886,-3.2984 -1.16907,-0.19573 -3.25322,1.43592 -3.25322,1.43592"
       id="path21"
       sodipodi:nodetypes="caccaaac"
       inkscape:label="Latvia" /><path
       style="fill:none;stroke:#000000;stroke-width:0.499999;stroke-linecap:round;stroke-linejoin:round;stroke-miterlimit:4;paint-order:markers fill stroke"
       d="m 183.14368,172.70216 c 0,0 0.9129,0.60235 1.39478,0.49607 1.04611,-0.23073 1.29575,-1.86207 2.29402,-2.25073 2.21961,-0.86417 4.79429,-0.16553 7.14175,0.23806 1.08152,0.18594 2.10579,0.62306 3.13804,0.99552 0.77621,0.28008 1.4841,0.77257 2.29402,0.93059 1.14702,0.22379 2.34555,0.13865 3.50595,0 0.72967,-0.0872 1.46747,-0.80979 2.14252,-0.5194 0.62632,0.26943 0.38517,1.51876 1.01716,1.77461 0.6751,0.2733 1.37429,-0.67589 2.09924,-0.60596 0.99232,0.0957 1.77428,1.81722 2.66193,1.36342 1.22818,-0.62789 -0.0825,-2.90772 0.6276,-4.09027 0.36618,-0.60979 1.03447,-1.05325 1.7097,-1.27686 0.84474,-0.27975 2.66958,0.005 2.66958,0.005"
       id="path22"
       inkscape:label="Ukraine 1"
       sodipodi:nodetypes="caaaaaaaaaaaac" /><path
       style="fill:none;stroke:#000000;stroke-width:0.499999;stroke-linecap:round;stroke-linejoin:round;stroke-miterlimit:4;paint-order:markers fill stroke"
       d="m 178.24439,189.19611 c 0,0 -1.53868,2.53753 -1.15066,3.80425 0.37849,1.2356 1.73529,2.22266 3.0082,2.4455 0.47417,0.083 0.88323,-0.44213 1.36342,-0.47611 2.08298,-0.14739 4.06385,1.05623 6.14623,1.21193 1.10899,0.0829 2.27113,0.17951 3.33282,-0.15149 1.77905,-0.55465 2.95373,-2.43236 4.73952,-2.96491 1.34142,-0.40003 2.84475,-0.44271 4.19849,-0.0866 1.79233,0.47148 3.52615,1.47286 4.7828,2.83506 0.95817,1.03865 1.19284,2.56386 1.86118,3.80893 0.54595,1.01707 1.35863,1.90166 1.75298,2.98655 0.29738,0.81812 1.08068,1.99395 0.43283,2.57536 -0.97052,0.87099 -2.65784,-1.74839 -3.76565,-1.06044 -0.76685,0.47622 -0.11975,1.84219 -0.49775,2.66193 -0.6251,1.3556 -2.95448,1.99819 -2.81342,3.4843 0.0696,0.73379 0.96985,1.26255 1.68805,1.42835 0.48587,0.11217 0.99103,-0.17298 1.44999,-0.36791 0.55461,-0.23556 0.9391,-1.03053 1.53656,-0.95223 0.77241,0.10123 1.60219,1.7014 1.60219,1.7014"
       id="path23"
       inkscape:label="Ukraine 2"
       sodipodi:nodetypes="caaaaaaaaaaaaaaaaac" /><path
       style="fill:none;stroke:#000000;stroke-width:0.499999;stroke-linecap:round;stroke-linejoin:round;stroke-miterlimit:4;paint-order:markers fill stroke"
       d="m 180.10193,195.44586 c 0,0 -1.86511,1.26058 -2.59701,2.09925 -1.79613,2.05816 -2.30667,5.08379 -4.24176,7.01189 -0.50656,0.50473 -1.21984,0.74691 -1.83954,1.10373 -0.68554,0.39473 -1.94908,0.36646 -2.0776,1.14701 -0.14601,0.88676 1.42225,1.18411 1.8179,1.99103 0.23628,0.48189 -0.0386,1.15101 0.27522,1.58642 0.57913,0.80355 2.12975,0.5454 2.61681,1.40787 0.40935,0.72486 -0.53363,1.77058 -0.12242,2.49439 0.59066,1.03966 2.00269,1.95258 3.16771,1.68332 0.51595,-0.11924 0.41063,-1.2015 0.93348,-1.28545 0.57729,-0.0927 1.41884,0.44063 1.42318,1.0253 0.003,0.4703 -1.10084,0.37241 -1.13242,0.84167 -0.0613,0.91056 1.75137,1.02413 1.95878,1.91287 0.10816,0.46347 -0.7205,0.9393 -0.4744,1.34666 0.45585,0.75453 1.73949,0.29639 2.61681,0.38257 2.50596,0.24617 5.0723,0.86145 7.54436,0.38258 1.84852,-0.35808 3.27063,-2.05418 5.1265,-2.37196 1.55041,-0.26548 3.23986,-0.14618 4.69801,0.44378 0.72667,0.29401 1.11227,1.16875 1.83635,1.46909 0.53399,0.22149 1.72352,0.19321 1.72352,0.19321"
       id="path24"
       sodipodi:nodetypes="caaaaaaaaaaaaaaaaaaac"
       inkscape:label="Romania" /><path
       style="fill:none;stroke:#000000;stroke-width:0.499999;stroke-linecap:round;stroke-linejoin:round;stroke-miterlimit:4;paint-order:markers fill stroke"
       d="m 193.92544,194.04718 c 0,0 1.82394,0.0292 2.4943,0.55466 0.70334,0.55128 0.73772,1.63165 1.19029,2.40222 0.79346,1.35098 1.92455,2.49146 2.66192,3.87386 0.4968,0.93138 1.02695,1.89723 1.16866,2.94327 0.21432,1.58202 -0.75134,3.18163 -0.51941,4.76116 0.0888,0.60448 0.71418,1.68802 0.71418,1.68802"
       id="path25"
       inkscape:label="Moldava"
       sodipodi:nodetypes="caaaaac" /><path
       style="fill:none;stroke:#000000;stroke-width:0.499999;stroke-linecap:round;stroke-linejoin:round;stroke-miterlimit:4;paint-order:markers fill stroke"
       d="m 179.10117,217.4611 c 0,0 -1.1409,1.29093 -1.11236,2.07527 0.0509,1.40006 2.36223,2.15383 2.24954,3.55028 -0.0828,1.02647 -1.66542,1.35569 -2.0506,2.31075 -0.4201,1.04163 -0.55675,2.32458 -0.13773,3.36665 0.40109,0.99747 1.97273,1.21887 2.32605,2.23424 0.27241,0.78285 -0.94662,1.90252 -0.33666,2.46378 1.67661,1.54276 4.41377,-1.78624 6.67209,-1.48439 1.29139,0.17261 2.15676,1.76607 3.45847,1.82105 1.00715,0.0425 2.21464,-0.34725 2.78514,-1.17833 0.26573,-0.38711 -0.32806,-1.12394 0.0459,-1.40787 0.53111,-0.40325 1.65511,-0.12688 1.94348,0.47439 0.37007,0.77161 -0.73842,1.54428 -1.08651,2.32605 -0.3667,0.82357 -1.05526,2.4902 -1.05526,2.4902"
       id="path26"
       inkscape:label="Bulgaria"
       sodipodi:nodetypes="caaaaaaaaaaaac" /><path
       style="fill:none;stroke:#000000;stroke-width:0.499999;stroke-linecap:round;stroke-linejoin:round;stroke-miterlimit:4;paint-order:markers fill stroke"
       d="m 179.88327,233.20268 c 0,0 -1.366,0.89268 -2.11635,1.20052 -1.78126,0.73079 -4.38855,-0.0144 -5.57793,1.49969 -0.40031,0.50958 0.18014,1.33618 -0.0459,1.94348 -0.37922,1.01884 -1.42725,1.6432 -2.07356,2.51734 -0.38257,0.51742 -1.06487,1.61022 -1.06487,1.61022"
       id="path27"
       inkscape:label="Greece"
       sodipodi:nodetypes="caaaac" /><path
       style="fill:none;stroke:#000000;stroke-width:0.499999;stroke-linecap:round;stroke-linejoin:round;stroke-miterlimit:4;paint-order:markers fill stroke"
       d="m 177.82836,227.88958 c 0,0 -2.54096,0.20062 -3.732,0.61393 -1.25374,0.43507 -2.76624,0.81007 -3.48431,1.9261 -0.67928,1.05574 -0.75181,2.58661 -0.29216,3.75483 0.30988,0.78757 1.8691,1.71845 1.8691,1.71845"
       id="path28"
       sodipodi:nodetypes="caaac"
       inkscape:label="North Macedonia" /><path
       style="fill:none;stroke:#000000;stroke-width:0.499999;stroke-linecap:round;stroke-linejoin:round;stroke-miterlimit:4;paint-order:markers fill stroke"
       d="m 165.44913,230.45136 c 0,0 0.0611,-2.06591 0.48832,-2.97583 0.20102,-0.42817 0.48488,-0.91294 0.9306,-1.07126 0.57276,-0.20344 1.26925,0.011 1.79626,0.3138 0.67912,0.39025 1.1176,1.12125 1.51491,1.79626 0.29876,0.50759 0.628,1.65159 0.628,1.65159"
       id="path29"
       sodipodi:nodetypes="caaaac"
       inkscape:label="Albania" /><path
       style="fill:none;stroke:#000000;stroke-width:0.499999;stroke-linecap:round;stroke-linejoin:round;stroke-miterlimit:4;paint-order:markers fill stroke"
       d="m 169.46046,206.52631 c 0,0 -1.66626,-0.42549 -2.49503,-0.3029 -1.16947,0.17298 -2.68843,0.38603 -3.24624,1.42835 -0.43369,0.8104 0.23971,1.8278 0.47611,2.71603 0.15289,0.57445 0.41886,1.113 0.60597,1.67723 0.19215,0.57944 0.50864,1.14288 0.53022,1.75297 0.0352,0.99428 -0.93418,1.95441 -0.66007,2.91081 0.16935,0.59088 1.04266,0.75042 1.2985,1.30932 0.42764,0.93422 0.69887,2.15481 0.23806,3.07312 -0.14542,0.28979 -0.79746,0.19613 -0.82239,0.51939 -0.1325,1.71793 3.55945,1.7078 3.8955,3.39775 0.11698,0.58824 -0.80032,1.61149 -0.80032,1.61149"
       id="path30"
       sodipodi:nodetypes="caaaaaaaaaac"
       inkscape:label="Serbia" /><path
       style="fill:none;stroke:#000000;stroke-width:0.499999;stroke-linecap:round;stroke-linejoin:round;stroke-miterlimit:4;paint-order:markers fill stroke"
       d="m 165.31661,213.61648 c 0,0 -1.88131,-0.65152 -2.85264,-0.85729 -2.1411,-0.45358 -4.32613,-0.87364 -6.51414,-0.82238 -1.30304,0.0305 -2.73853,-0.006 -3.85222,0.67089 -0.51902,0.31558 -1.16264,0.84544 -1.10372,1.45 0.0748,0.76797 1.31493,0.88694 1.73133,1.53655 0.50862,0.79346 0.36672,1.88019 0.82238,2.70521 0.62305,1.12811 1.52759,2.11427 2.53208,2.92163 0.44785,0.35996 1.14012,0.38687 1.51491,0.82238 0.29825,0.34657 0.19756,0.92053 0.46746,1.28961 m 4.29162,3.3016 c 0.76666,-0.38915 -0.34457,-1.76626 -0.0628,-2.57854 0.23339,-0.6728 0.655,-1.57228 1.36343,-1.64476 0.1838,-0.0188 0.26133,0.41501 0.43283,0.34626 0.45265,-0.18146 -0.20769,-1.1746 0.19478,-1.44999 0.31391,-0.2148 1.10918,0.26803 1.10918,0.26803"
       id="path31"
       sodipodi:nodetypes="caaaaaaaaccaaaac"
       inkscape:label="Bosnia and Herzegoniva" /><path
       style="fill:none;stroke:#000000;stroke-width:0.499999;stroke-linecap:round;stroke-linejoin:round;stroke-miterlimit:4;paint-order:markers fill stroke"
       d="m 154.14679,204.52415 c 0,0 2.13918,2.39065 3.53498,3.10651 1.33223,0.68325 2.90954,1.30879 4.37665,1.00999 0.89449,-0.18218 2.21503,-1.61038 2.21503,-1.61038"
       id="path32"
       sodipodi:nodetypes="caac"
       inkscape:label="Croatia" /><path
       style="opacity:1;fill:none;fill-opacity:1;stroke:#000000;stroke-width:0.499999;stroke-linecap:round;stroke-linejoin:round;stroke-miterlimit:4;paint-order:markers fill stroke"
       d="m 59.283689,149.29573 c 0,0 -1.177971,0.42885 -1.565373,0.88659 -0.401746,0.47469 -0.143558,1.37638 -0.638429,1.75298 -0.325373,0.24761 -1.08989,-0.28929 -1.222753,0.0974 -0.131903,0.38389 0.936459,0.41827 0.898128,0.82238 -0.07401,0.7803 -1.992357,0.44983 -2.001853,1.23358 -0.01579,1.30349 2.002267,2.39634 3.278711,2.1317 0.766994,-0.15902 0.515632,-1.93244 1.298501,-1.95857 0.997883,-0.0333 0.913372,1.95784 1.817899,2.38058 0.42621,0.1992 1.410004,-0.0624 1.410004,-0.0624"
       id="path39"
       sodipodi:nodetypes="caaaaaaaac"
       inkscape:label="Ireland" /><path
       style="fill:none;fill-opacity:1;stroke:#000000;stroke-width:0.499999;stroke-linecap:round;stroke-linejoin:round;stroke-miterlimit:4;paint-order:markers fill stroke"
       d="m 52.29053,229.98587 c 0,0 1.434838,-1.51948 2.159896,-1.14692 0.530859,0.27277 -0.225543,1.39873 0.238057,1.77462 0.674303,0.54673 1.733633,-0.10428 2.597001,-0.19478 1.288631,-0.13508 2.773649,-1.23739 3.852215,-0.5194 0.509827,0.33939 0.09877,1.29222 0.476117,1.77462 0.238732,0.30519 0.95931,0.17955 1.017159,0.56268 0.194237,1.28642 -2.209529,1.61054 -2.705208,2.81342 -0.516778,1.25408 0.05464,2.71753 -0.06493,4.06863 -0.09148,1.03368 0.303134,2.41324 -0.497758,3.07312 -0.523613,0.43142 -1.755508,-0.68342 -2.034315,-0.0649 -0.211814,0.46989 0.828034,0.66531 1.060442,1.12537 0.25457,0.50393 0.264849,1.10312 0.302982,1.66641 0.08731,1.28962 -0.534109,2.63271 -0.173133,3.87386 0.17214,0.59187 1.117947,0.9012 1.06044,1.51491 -0.07805,0.83298 -1.478348,0.97911 -1.796257,1.75298 -0.435524,1.06017 0.06196,3.43788 0.06196,3.43788"
       id="path75"
       sodipodi:nodetypes="caaaaaaaaaaaaaaac"
       inkscape:label="Portugal" /></g></svg>
